<svg id="Layer_1" data-name="Layer 1" xmlns="http://www.w3.org/2000/svg" viewBox="0 0 1001.83 1001.48">
  <g>
    <path d="M1007.91,659.87v11.44l-.68.7-1.35,0H317.58c8.22,14.86,16.19,29.3,24.17,43.73l-10.34,5.49a7.57,7.57,0,0,1-.62-.78q-16.92-29-33.82-58a22.69,22.69,0,0,1-1.05-2.55h706.57c1.57,0,3.14-.08,4.7-.13Z" fill="#63cff9"/>
    <path d="M22.12,1005.74H-3.45V-5.62H1007.91V20.62l-.58-.12c-.74-2-1.33-4-2.25-5.95-5.8-12.12-15.43-18.76-28.89-18.77Q824-4.37,671.84-4.27c-1.46,0-2.91.06-4.37.1l-14.24,0-15.38.06L623-4.16l-14,0-14.29,0c-.56,0-1.11-.07-1.67-.07q-70.1,0-140.18,0c-.89,0-1.78.1-2.68.15l-13-.07-16,0-9.43,0c-1.45,0-2.9-.14-4.36-.14Q219-4.28,30.65-4.35A31.72,31.72,0,0,0,11.33,1.91C3,8-1.7,16.29-1.72,26.87c0,15.92-.09,31.84-.09,47.76q0,314.85,0,629.68c0,1.79.2,3.57.3,5.35q0,9.44-.08,18.86-.12,12.68-.23,25.36l-.12.92q.16,7.8.32,15.61c.06,2.63.09,5.26.13,7.89-.05,1-.15,2-.15,3q0,99.18,0,198.38a12.91,12.91,0,0,0,1.23,5.11c4.52,10,11.93,16.9,22.44,20.34A5.83,5.83,0,0,1,22.12,1005.74Z" fill="#fdfdfe"/>
    <path d="M1007.91,659.87l-.71-.13V647.09H274.45a1.07,1.07,0,0,1-.1-.32c0-.09.1-.23.17-.24,1.1,0,2.21-.12,3.32-.12h723.73c1,0,2-.08,3,0,2.12.22,2.73-.76,2.66-2.74-.13-3.36-.06-6.73-.08-10.09l0-12.62.71-.14Z" fill="#236d9d"/>
    <path d="M1007.24,620.17h.67v.67l-.71.14c-1.46,0-2.91-.13-4.37-.13q-195.08,0-390.17,0a33.86,33.86,0,0,1-4.54-.61c1.46,0,2.92,0,4.37,0Z" fill="#6ec7eb"/>
    <path d="M983,1005.74c0-.21,0-.42,0-.63,12-3.81,20.38-11.34,24.25-23.53a2.25,2.25,0,0,1,.63-.06v24.22Z" fill="#fdfdfe"/>
    <path d="M1007.23,672q0,152.94,0,305.87c0,1.24,0,2.47,0,3.7-3.87,12.19-12.25,19.72-24.25,23.53-1.23,0-2.46,0-3.7,0h-466c-1.57,0-3.13-.08-4.7-.13a5.24,5.24,0,0,0-.31-1.62c-6.23-10.84-12.52-21.65-18.76-32.5-7.34-12.78-14.57-25.63-22-38.36-4.78-8.18-9.85-16.19-14.79-24.28-1.35-2.81-2.56-5.7-4.08-8.42-3.76-6.73-7.64-13.37-11.49-20-8-13.92-16-27.89-24.09-41.76-4.57-7.8-9.54-15.35-14.06-23.18-5.35-9.26-10.33-18.75-15.62-28q-10.67-18.78-21.56-37.42c-6.61-11.25-13.4-22.38-20.12-33.57-8-14.43-15.95-28.87-24.17-43.73h688.3Z" fill="#3fc0f8"/>
    <path d="M274.45,647.1H1007.2v12.65c-1.57,0-3.14.13-4.71.13H295.92a22.69,22.69,0,0,0,1.05,2.55q16.89,29,33.82,58a7.57,7.57,0,0,0,.62.78c.67,1.29,1.29,2.6,2,3.86Q364.33,778.53,395.26,832q23.17,40.08,46.3,80.22c6.44,11.36,12.85,22.73,19.33,34.07q16.78,29.38,33.62,58.72H479.67c-1.18-2.14-2.34-4.28-3.55-6.4-11.85-20.78-23.65-41.59-35.57-62.33q-19.87-34.59-39.91-69.1-12.18-21-24.37-42.07-11.73-20.33-23.4-40.69c-7.24-12.6-14.44-25.22-21.71-37.8q-12.92-22.35-25.9-44.66c-8.07-13.93-16.15-27.85-24.12-41.83C278.73,655.88,276.67,651.44,274.45,647.1Z" fill="#074f7f"/>
    <path d="M441.56,912.2q-23.15-40.12-46.3-80.22-30.9-53.47-61.84-106.91c-.72-1.26-1.34-2.57-2-3.86l10.34-5.49c6.72,11.19,13.51,22.32,20.12,33.57q10.94,18.62,21.56,37.42c5.29,9.3,10.27,18.79,15.62,28,4.52,7.83,9.49,15.38,14.06,23.18,8.11,13.87,16.07,27.84,24.09,41.76,3.85,6.68,7.73,13.32,11.49,20,1.52,2.72,2.73,5.61,4.08,8.42-.36,2.13-.73,4.26-1.17,6.86C448.14,914.42,445.7,909.65,441.56,912.2Z" fill="#58c9f6"/>
    <path d="M1007.33,20.5c0,1.57-.08,3.14-.08,4.71q0,288.9,0,577.8c0,1.68,0,3.36,0,5q-131.28.35-262.56.67c-21.08.06-42.15,0-63.23,0q-30.25,0-60.53,0c-4.21,0-7.91-1-10.2-5.1q-8.27-14.75-16.72-29.38-15.29-26.38-30.75-52.67c-2.93-5-6.32-9.64-9.5-14.45a22.58,22.58,0,0,0-1.42-4.73c-5.74-10.23-11.58-20.4-17.42-30.57-7.17-12.49-14.31-25-21.6-37.43-6.61-11.25-13.41-22.4-20.13-33.59-2-3.63-3.87-7.29-5.91-10.88-6.88-12.12-13.95-24.14-20.59-36.39-1-1.94-1.24-5.39-.21-7.24,7.4-13.35,15.26-26.45,22.9-39.67,3-5.11,5.69-10.32,8.53-15.49,1.38-2.41,2.75-4.83,4.16-7.23,6.91-11.75,13.88-23.46,20.74-35.24q12.22-21,24.28-42.1c4.76-8.33,9.38-16.74,14.06-25.12,2.45-4,5-7.92,7.32-12,7.14-12.39,14.17-24.83,21.28-37.24s14.12-24.61,21.19-36.91c5.59-9.4,11.26-18.75,16.77-28.2C636.5,52,645.34,36.84,653.94,21.58c4.76-8.45,9-17.16,13.53-25.75,1.46,0,2.91-.1,4.37-.1q152.17,0,304.35,0c13.46,0,23.09,6.65,28.89,18.77C1006,16.46,1006.59,18.51,1007.33,20.5Z" fill="#5ed6f9"/>
    <path d="M449.44,1005c-6.39,0-12.77.09-19.16.09H26.79c-1.56,0-3.13,0-4.7.08-10.51-3.44-17.92-10.33-22.44-20.34a12.91,12.91,0,0,1-1.23-5.11q-.09-99.19,0-198.38c0-1,.1-2,.15-3a10.57,10.57,0,0,0,2.36-2.13c6.81-11.64,13.54-23.34,20.3-35,8.67-14.95,17.39-29.87,26-44.85,4.1-7.14,8-14.41,12-21.62a8.19,8.19,0,0,0,1.34-1.43q5.59-9.74,11.11-19.5c6.18-10.88,12.31-21.78,18.54-32.63,6.89-12,13.86-24,20.79-36,4-6.69,8.13-13.33,12-20.08,8.14-14,16.26-28,24.21-42.11,4.05-7.19,7.71-14.6,11.55-21.91a4.46,4.46,0,0,0,1-.85c5.31-8.77,10.72-17.48,15.87-26.34,8-13.71,15.77-27.5,23.58-41.3,3.18-5.61,6.21-11.32,9.3-17,5.29-8.79,10.68-17.53,15.86-26.38q15.39-26.31,30.58-52.75c1.54-2.67,2.72-5.55,4.06-8.34,2.24-3.71,4.53-7.4,6.72-11.15q11.25-19.22,22.43-38.46T310.37,240c3.81-6.67,7.46-13.43,11.19-20.15,7-11.7,14-23.34,20.87-35.1q14.91-25.63,29.58-51.4c3.48-6.1,6.75-12.31,10.11-18.47,2.9-5,5.73-10.1,8.71-15.07C399.1,86,407.56,72.26,415.7,58.37,424,44.29,432,30.09,439.94,15.83c3.63-6.52,6.83-13.29,10.23-19.95.9,0,1.79-.15,2.68-.15q70.09,0,140.18,0c.56,0,1.11,0,1.67.07-3.1,5.55-6.16,11.12-9.32,16.64C575.54,29.62,565.6,46.75,555.81,64c-5.53,9.71-10.83,19.55-16.23,29.33-.76,1.09-1.6,2.14-2.27,3.28C526.51,114.79,515.62,133,505,151.28c-4.69,8.09-8.82,16.51-13.2,24.77a10,10,0,0,0-1.88,1.85q-12.18,20.83-24.25,41.72t-23.89,41.92c-3.23,5.73-6.18,11.62-9.26,17.44a4.43,4.43,0,0,0-1,.89q-7.69,13-15.36,25.95c-9.36,15.87-18.82,31.68-28,47.65-4.32,7.53-8.1,15.38-12.12,23.08a19.9,19.9,0,0,0-1.64,2.05c-4.46,7.35-9,14.67-13.29,22.1-8.14,14-16.14,28.08-24.22,42.12-7.4,12.88-14.89,25.71-22.2,38.64-2.23,3.93-4,8.11-6,12.18a24.15,24.15,0,0,0-2.29,2.8c-2.48,4.11-4.84,8.28-7.28,12.41q-18.61,31.54-37.23,63.09-5,8.5-9.79,17.15c-5,9-9.78,18-14.67,27-3.7,5.84-7.53,11.6-11.05,17.54a9.19,9.19,0,0,0,.1,9.6c3.38,5.9,6.87,11.74,10.29,17.62q10.35,17.8,20.68,35.63c7.68,13.23,15.32,26.48,23,39.68,3.76,6.44,7.64,12.82,11.47,19.22.63,1.05,1.31,2.08,1.9,3.15,5,9.11,9.87,18.31,15.05,27.32q18.18,31.68,36.64,63.2c8,13.68,16.26,27.23,24.43,40.82a3.26,3.26,0,0,0,1.76,1.54c2.82.48,5.68.73,8.79,1.09.17-2.22.32-4.3.48-6.39.72,1.13,1.5,2.23,2.17,3.38q28.21,48.6,56.39,97.21C443,992.72,446.16,998.89,449.44,1005Z" fill="#49c8f8"/>
    <path d="M-1.5,709.66c-.1-1.78-.3-3.56-.3-5.35q0-314.83,0-629.68c0-15.92.06-31.84.09-47.76C-1.7,16.29,3,8,11.33,1.91A31.72,31.72,0,0,1,30.65-4.35Q219-4.2,407.38-4.27c1.46,0,2.91.09,4.36.14a14,14,0,0,1-.88,2.84C408.45,3,406,7.23,403.49,11.48Q383,46.72,362.6,81.93c-13.09,22.64-26,45.36-39.1,68-13,22.46-26,44.85-39,67.3-12.18,21.09-24.24,42.26-36.44,63.35-12.69,22-25.53,43.83-38.22,65.79-13.09,22.64-26,45.36-39.1,68-13.85,24-27.8,47.95-41.65,71.95-13.07,22.65-26,45.36-39.1,68q-22.11,38.34-44.33,76.59T.87,707.65A9.77,9.77,0,0,1-1.5,709.66Z" fill="#1b72bc"/>
    <path d="M274.45,647.1c2.22,4.34,4.28,8.78,6.69,13,8,14,16.05,27.9,24.12,41.83q12.93,22.35,25.9,44.66c7.27,12.58,14.47,25.2,21.71,37.8q11.69,20.36,23.4,40.69,12.17,21.06,24.37,42.07,20,34.55,39.91,69.1c11.92,20.74,23.72,41.55,35.57,62.33,1.21,2.12,2.37,4.26,3.55,6.4H464.24a11,11,0,0,0-.72-2.54c-5.14-8.91-10.34-17.79-15.49-26.69q-11.83-20.46-23.65-40.94-11.14-19.32-22.27-38.65-10.23-17.71-20.49-35.41c-7.54-13.08-15-26.19-22.56-39.26S344,795.59,336.5,782.63c-7.28-12.58-14.5-25.19-21.79-37.77-7.5-13-15.07-25.88-22.57-38.85s-15-26.17-22.55-39.26c-4.57-8-9.11-15.91-13.74-23.83-1.91-3.26-1.54-6.36.19-9.49.81-1.46,1.59-2.93,2.43-4.37,8.74-15,17.55-29.88,26.21-44.89,10.84-18.78,21.51-37.67,32.34-56.46,10.33-17.91,20.77-35.76,31.16-53.64q12.19-21,24.37-42.08c8-13.95,16-27.95,24-41.9s16-27.69,24-41.53q10.33-17.85,20.68-35.69c8.1-14,16.14-28.12,24.25-42.15,6.76-11.7,13.61-23.35,20.38-35.05Q497,216.37,508.13,197q12-20.93,24.07-41.87,10.78-18.74,21.63-37.46l26-45c7.88-13.65,15.89-27.23,23.61-41C610.13,19.85,616.5,7.8,623-4.16l14.85,0a34.35,34.35,0,0,1-2,5.65q-9.9,17.7-20,35.28c-10.22,17.71-20.56,35.36-30.78,53.07-9.68,16.74-19.25,33.54-28.91,50.29S536.83,173.4,527.22,190q-15.53,26.86-31,53.75-14.43,25-28.93,49.88C457.41,310.79,447.57,328,437.6,345c-2,3.38-1.9,6.27.1,9.68,8.73,14.83,17.23,29.8,25.82,44.71q12.14,21.06,24.28,42.12c7.5,13,15.09,25.87,22.58,38.84,9.67,16.74,19.25,33.53,28.93,50.27,9.34,16.15,18.81,32.21,28.11,48.38,9.41,16.36,18.63,32.84,28.07,49.19,1.84,3.18,4.66,5.45,8.7,5.43a19.4,19.4,0,0,0,3.49.63q64.8,0,129.59,0a19.3,19.3,0,0,0,3.48-.63l31,0,235.47,0c0,3.36,0,6.73.08,10.09.07,2-.54,3-2.66,2.74-1-.1-2,0-3,0H277.84c-1.11,0-2.22.07-3.32.12-.07,0-.16.15-.17.24A1.07,1.07,0,0,0,274.45,647.1ZM493.92,505a22.55,22.55,0,0,0-.94-2.13L428.86,391.44c-.38-.67-.63-1.41-1.23-2.78-1.77,2.86-2.8,4.42-3.73,6Q391.46,451,359.05,507.22c-6.13,10.66-12.11,21.41-18.16,32.12-8.22,12.9-9.88,26.76-5.81,41.37,7.05,25.23,27.18,39.65,49.33,39.88,57.38.59,114.78.21,172.17.21,1.41,0,2.81-.12,4.19-.19,0-.57.08-.83,0-1q-13.56-23-27.14-45.92c-7.09-12.52-14.11-25.1-21.3-37.57C506.29,525.68,500.06,515.35,493.92,505Z" fill="#06619e"/>
    <path d="M623-4.16c-6.5,12-12.87,24-19.55,35.88-7.72,13.73-15.73,27.31-23.61,41l-26,45Q543,136.43,532.2,155.15,520.14,176.08,508.13,197,497,216.36,485.86,235.67c-6.77,11.7-13.62,23.35-20.38,35.05-8.11,14-16.15,28.11-24.25,42.15q-10.31,17.86-20.68,35.69-12,20.76-24,41.53c-8,14-16,28-24,41.9s-16.24,28.06-24.37,42.08C337.79,492,327.35,509.8,317,527.71c-10.83,18.79-21.5,37.68-32.34,56.46-8.66,15-17.47,29.93-26.21,44.89-.84,1.44-1.62,2.91-2.43,4.37-1.73,3.13-2.1,6.23-.19,9.49,4.63,7.92,9.17,15.88,13.74,23.83,7.52,13.09,15,26.19,22.55,39.26s15.07,25.89,22.57,38.85c7.29,12.58,14.51,25.19,21.79,37.77,7.5,13,15.07,25.89,22.56,38.86s15,26.18,22.56,39.26q10.22,17.71,20.49,35.41,11.16,19.32,22.27,38.65Q436.2,955.29,448,975.75c5.15,8.9,10.35,17.78,15.49,26.69a11,11,0,0,1,.72,2.54h-14.8c-3.28-6.08-6.42-12.25-9.87-18.23q-28.12-48.65-56.39-97.21c-.67-1.15-1.45-2.25-2.17-3.38-.93-1.9-1.74-3.87-2.8-5.7q-24.7-42.9-49.51-85.77c-8.3-14.31-16.81-28.51-25.22-42.77-.75-1.61-1.38-3.29-2.27-4.83q-12-20.94-24.12-41.85-18-31.08-36-62.13c-1.94-3.33-2.12-6.24.06-9.65,2.69-4.22,4.83-8.8,7.21-13.22,1.48-2.23,3.08-4.39,4.42-6.7q25.11-43.47,50.14-87c5.68-9.89,11.14-19.9,16.7-29.85.45-.63.95-1.24,1.34-1.9,11.57-19.8,23.2-39.56,34.66-59.42,10.49-18.2,20.79-36.51,31.17-54.77.39-.55.82-1.06,1.16-1.64q19.65-33.94,39.28-67.91c6.13-10.64,12.11-21.36,18.16-32.05,6-10.1,12-20.14,17.89-30.31q19.32-33.59,38.48-67.27,12.88-22.16,25.76-44.3c7.65-13.25,15.22-26.54,22.83-39.8Q559.81,81.16,569.27,65q12.87-22.17,25.66-44.38c4.74-8.23,9.38-16.52,14.06-24.78Z" fill="#095080"/>
    <path d="M1007.17,633.6l-235.47,0-31,0H604.19c-4,0-6.86-2.25-8.7-5.43-9.44-16.35-18.66-32.83-28.07-49.19-9.3-16.17-18.77-32.23-28.11-48.38-9.68-16.74-19.26-33.53-28.93-50.27-7.49-13-15.08-25.88-22.58-38.84q-12.18-21-24.28-42.12c-8.59-14.91-17.09-29.88-25.82-44.71-2-3.41-2.08-6.3-.1-9.68,10-17.08,19.81-34.24,29.72-51.36q14.44-24.94,28.93-49.88,15.51-26.85,31-53.75c9.61-16.64,19.31-33.24,28.92-49.88s19.23-33.55,28.91-50.29c10.22-17.71,20.56-35.36,30.78-53.07q10.14-17.56,20-35.28a34.35,34.35,0,0,0,2-5.65l15.37-.06a53.12,53.12,0,0,1-2.49,5.79c-9.37,16.34-18.87,32.6-28.21,49C614.28,65,606.2,79.48,598.05,94c-.56.82-1.17,1.61-1.67,2.46-9.09,15.62-18.23,31.21-27.24,46.87-6.61,11.5-13,23.09-19.54,34.64a16.45,16.45,0,0,0-1.19,1.59Q526.2,217.78,504,256.08c-6.19,10.73-12.2,21.56-18.29,32.35-11.42,19.56-22.89,39.1-34.17,58.75a6.34,6.34,0,0,0-.09,5.32c8.86,15.51,17.94,30.89,27,46.31l.54.72,0,0c.42.9.77,1.85,1.27,2.71Q501.9,440,523.64,477.74c5.86,10.14,11.89,20.19,17.84,30.28,1.84,3.44,3.59,6.93,5.54,10.3q20.22,35,40.48,69.95c5.52,9.53,10.89,19.15,16.52,28.61.84,1.42,2.71,2.24,4.1,3.33a33.86,33.86,0,0,0,4.54.61q195.09,0,390.17,0c1.46,0,2.91.09,4.37.13Z" fill="#085080"/>
    <path d="M421.17-4.16l16,0C436-2.06,434.85.08,433.63,2.19q-25.51,44.21-51,88.4c-4.5,7.81-8.86,15.7-13.29,23.56-.73,1.11-1.51,2.19-2.18,3.34Q349.34,148.21,331.57,179c-7.68,13.35-15.21,26.77-22.81,40.16-.44.63-.94,1.23-1.33,1.9q-20.46,35.21-40.9,70.45c-7.14,12.37-14.07,24.87-21.1,37.31-.43.64-.91,1.24-1.29,1.9q-22.47,39-44.9,78.05c-.77,1.34-1.48,2.72-2.22,4.09-.79,1.2-1.64,2.37-2.36,3.62Q184,434.83,173.32,453.25q-13.4,23.22-26.73,46.45c-10.08,17.27-20.24,34.49-30.23,51.81-6,10.45-11.79,21-17.68,31.58a16.34,16.34,0,0,0-1.18,1.59C89.65,598.09,81.73,611.48,74,625c-9.57,16.66-19,33.42-28.49,50.13-.9,1.27-1.9,2.48-2.68,3.82C32.31,697,21.88,715.13,11.33,733.2c-4.1,7-8.46,13.9-12.71,20.84a.32.32,0,0,0-.43-.16q.12-12.68.23-25.36a41.38,41.38,0,0,0,3.71-4.7C10,710.4,17.7,696.94,25.46,683.47q12-20.91,24.08-41.86c8.71-15.1,17.49-30.16,26.22-45.26S93.28,565.93,102,550.73q13.41-23.24,26.82-46.47c9-15.6,17.87-31.25,26.86-46.84,9.6-16.65,19.3-33.25,28.91-49.9s19.25-33.55,28.92-50.3,19.29-33.25,28.91-49.9c10.35-17.9,20.63-35.85,31-53.75,10.24-17.7,20.58-35.35,30.81-53.06,12.14-21,24.17-42.06,36.31-63.07q21.89-37.89,43.88-75.72c8.4-14.51,16.86-29,25.09-43.59C413.65,10.83,417.31,3.28,421.17-4.16Z" fill="#095080"/>
    <path d="M421.17-4.16c-3.86,7.44-7.52,15-11.63,22.29-8.23,14.6-16.69,29.08-25.09,43.59q-21.93,37.88-43.88,75.72c-12.14,21-24.17,42.07-36.31,63.07-10.23,17.71-20.57,35.36-30.81,53.06-10.36,17.9-20.64,35.85-31,53.75q-14.43,25-28.91,49.9c-9.67,16.75-19.26,33.55-28.92,50.3s-19.31,33.25-28.91,49.9c-9,15.59-17.89,31.24-26.86,46.84S111,535.24,102,550.73q-13.14,22.8-26.28,45.62c-8.73,15.1-17.51,30.16-26.22,45.26q-12.07,20.91-24.08,41.86C17.7,696.94,10,710.4,2.13,723.82a41.38,41.38,0,0,1-3.71,4.7q0-9.43.08-18.86a9.77,9.77,0,0,0,2.37-2q22.46-38.32,44.8-76.71T90,554.35c13.07-22.65,26-45.36,39.1-68,13.85-24,27.8-47.94,41.65-71.95,13.07-22.65,26-45.37,39.1-68,12.69-22,25.53-43.83,38.22-65.79,12.2-21.09,24.26-42.26,36.44-63.35,13-22.45,26-44.84,39-67.3,13.07-22.65,26-45.37,39.1-68Q383,46.67,403.49,11.48c2.47-4.25,5-8.49,7.37-12.77a14,14,0,0,0,.88-2.84Z" fill="#0667a8"/>
    <path d="M369.32,114.15c4.43-7.86,8.79-15.75,13.29-23.56q25.49-44.22,51-88.4C434.85.08,436-2.06,437.2-4.19l13,.07c-3.4,6.66-6.6,13.43-10.23,20C432,30.09,424,44.29,415.7,58.37,407.56,72.26,399.1,86,390.83,99.76c-3,5-5.81,10-8.71,15.07a14.19,14.19,0,0,0-3.51.84C375.07,117.55,372,116.94,369.32,114.15Z" fill="#8fe2f8"/>
    <path d="M598.05,94c8.15-14.47,16.23-29,24.47-43.39,9.34-16.36,18.84-32.62,28.21-49a53.12,53.12,0,0,0,2.49-5.79l14.25,0c-4.49,8.59-8.77,17.3-13.53,25.75-8.6,15.26-17.44,30.4-26.27,45.53-5.51,9.45-11.18,18.8-16.77,28.2C607.71,95.53,599.78,94.69,598.05,94Z" fill="#8fe2f8"/>
    <path d="M609-4.18c-4.68,8.26-9.32,16.55-14.06,24.78Q582.15,42.82,569.27,65q-9.42,16.2-18.91,32.36L540.72,100c-.42-2.45-.78-4.56-1.14-6.68,5.4-9.78,10.7-19.62,16.23-29.33,9.79-17.21,19.73-34.34,29.57-51.52,3.16-5.52,6.22-11.09,9.32-16.64Z" fill="#8fe2f8"/>
    <path d="M-1.38,754c4.25-6.94,8.61-13.82,12.71-20.84,10.55-18.07,21-36.2,31.49-54.29.78-1.34,1.78-2.55,2.68-3.82,1.92,4.29,1.8,4.07,6,1.82,2.28-1.21,5.05-1.51,7.6-2.22-4,7.21-7.87,14.48-12,21.62-8.61,15-17.33,29.9-26,44.85-6.76,11.67-13.49,23.37-20.3,35a10.57,10.57,0,0,1-2.36,2.13c0-2.63-.07-5.26-.13-7.89q-.15-7.81-.32-15.61C-1.74,754.55-1.56,754.29-1.38,754Z" fill="#5dccf7"/>
    <path d="M441.56,912.2c4.14-2.55,6.58,2.22,10,2.83.44-2.6.81-4.73,1.17-6.86,4.94,8.09,10,16.1,14.79,24.28,7.44,12.73,14.67,25.58,22,38.36,6.24,10.85,12.53,21.66,18.76,32.5a5.24,5.24,0,0,1,.31,1.62l-14.13.06q-16.81-29.36-33.62-58.72C454.41,934.93,448,923.56,441.56,912.2Z" fill="#4dc4f6"/>
    <path d="M608.12,620.21c-1.39-1.09-3.26-1.91-4.1-3.33-5.63-9.46-11-19.08-16.52-28.61q-20.22-35-40.48-69.95c-1.95-3.37-3.7-6.86-5.54-10.3,4.29-2.7,6.48,1.63,9.74,3l2.5-3.86c3.18,4.81,6.57,9.49,9.5,14.45q15.51,26.25,30.75,52.67,8.47,14.63,16.72,29.38c2.29,4.08,6,5.09,10.2,5.1q30.27,0,60.53,0c21.08,0,42.15,0,63.23,0q131.28-.3,262.56-.67l0,12.12H612.49C611,620.17,609.58,620.2,608.12,620.21Z" fill="#68d1f9"/>
    <path d="M485.74,288.43c6.09-10.79,12.1-21.62,18.29-32.35q22.13-38.32,44.38-76.57a16.45,16.45,0,0,1,1.19-1.59,6.48,6.48,0,0,0,7.62,4.06c1.29-.24,2.6-.36,3.89-.54-4.68,8.38-9.3,16.79-14.06,25.12q-12.06,21.09-24.28,42.1c-6.86,11.78-13.83,23.49-20.74,35.24-1.41,2.4-2.78,4.82-4.16,7.23a20.33,20.33,0,0,0-3.12.9c-4.95,2.3-4.94,2.32-8.07-2.25C486.37,289.32,486.05,288.88,485.74,288.43Z" fill="#83dcf8"/>
    <path d="M485.74,288.43c.31.45.63.89.94,1.35,3.13,4.57,3.12,4.55,8.07,2.25a20.33,20.33,0,0,1,3.12-.9c-2.84,5.17-5.58,10.38-8.53,15.49-7.64,13.22-15.5,26.32-22.9,39.67-1,1.85-.84,5.3.21,7.24,6.64,12.25,13.71,24.27,20.59,36.39,2,3.59,3.95,7.25,5.91,10.88l-2.35,4.25c-2-1.11-3.74-2.15-5.54-3-2.06-.95-4.21-1.71-6.32-2.56l0,0-.54-.72c-9-15.42-18.1-30.8-27-46.31a6.34,6.34,0,0,1,.09-5.32C462.85,327.53,474.32,308,485.74,288.43Z" fill="#7bd8f7"/>
    <path d="M478.94,399.51c2.11.85,4.26,1.61,6.32,2.56,1.8.83,3.51,1.87,5.54,3l2.35-4.25c6.72,11.19,13.52,22.34,20.13,33.59,7.29,12.42,14.43,24.94,21.6,37.43,5.84,10.17,11.68,20.34,17.42,30.57a22.58,22.58,0,0,1,1.42,4.73l-2.5,3.86c-3.26-1.33-5.45-5.66-9.74-3-6-10.09-12-20.14-17.84-30.28Q501.86,440,480.21,402.22C479.71,401.36,479.36,400.41,478.94,399.51Z" fill="#72d4f7"/>
    <path d="M561.11,181.44c-1.29.18-2.6.3-3.89.54a6.48,6.48,0,0,1-7.62-4.06c6.51-11.55,12.93-23.14,19.54-34.64,9-15.66,18.15-31.25,27.24-46.87.5-.85,1.11-1.64,1.67-2.46,1.73.74,9.66,1.58,12.85,1.36q-10.6,18.45-21.19,36.91c-7.11,12.41-14.14,24.85-21.28,37.24C566.1,173.52,563.56,177.45,561.11,181.44Z" fill="#89dff8"/>
    <path d="M303.48,751.91c8.41,14.26,16.92,28.46,25.22,42.77q24.85,42.84,49.51,85.77c1.06,1.83,1.87,3.8,2.8,5.7-.16,2.09-.31,4.17-.48,6.39-3.11-.36-6-.61-8.79-1.09a3.26,3.26,0,0,1-1.76-1.54c-8.17-13.59-16.42-27.14-24.43-40.82q-18.46-31.51-36.64-63.2c-5.18-9-10-18.21-15.05-27.32-.59-1.07-1.27-2.1-1.9-3.15C296.18,755.52,300.39,755.56,303.48,751.91Z" fill="#57c9f6"/>
    <path d="M303.48,751.91c-3.09,3.65-7.3,3.61-11.52,3.51-3.83-6.4-7.71-12.78-11.47-19.22-7.71-13.2-15.35-26.45-23-39.68q-10.33-17.82-20.68-35.63c-3.42-5.88-6.91-11.72-10.29-17.62a9.19,9.19,0,0,1-.1-9.6c3.52-5.94,7.35-11.7,11.05-17.54.28.33.59.65.84,1,3.45,4.87,3.45,4.87,9.1,3.2a5.45,5.45,0,0,1,1-.1c-2.38,4.42-4.52,9-7.21,13.22-2.18,3.41-2,6.32-.06,9.65q18.06,31,36,62.13,12.09,20.91,24.12,41.85C302.1,748.62,302.73,750.3,303.48,751.91Z" fill="#61cef7"/>
    <path d="M248.37,620.23a5.45,5.45,0,0,0-1,.1c-5.65,1.67-5.65,1.67-9.1-3.2-.25-.35-.56-.67-.84-1,4.89-9,9.72-18.06,14.67-27q4.77-8.65,9.79-17.15,18.59-31.56,37.23-63.09c2.44-4.13,4.8-8.3,7.28-12.41a23.25,23.25,0,0,1,2.3-2.8c2.11,0,4.32-.36,6.3.15,1.68.44,3.09,1.91,4.62,2.92-5.56,10-11,20-16.7,29.85q-25,43.53-50.14,87C251.45,615.84,249.85,618,248.37,620.23Z" fill="#6bd2f7"/>
    <path d="M319.63,496.71c-1.53-1-2.94-2.48-4.62-2.92-2-.51-4.19-.14-6.3-.15,2-4.07,3.76-8.25,6-12.18,7.31-12.93,14.8-25.76,22.2-38.64,8.08-14,16.08-28.12,24.22-42.12,4.31-7.43,8.83-14.75,13.29-22.1a19.9,19.9,0,0,1,1.64-2.05c0,.45,0,.89,0,1.34.13,4.11,1.05,4.63,4.87,3.41,1.84-.59,3.91-.48,5.87-.68-10.38,18.26-20.68,36.57-31.17,54.77C344.17,455.25,332.54,475,321,494.81,320.58,495.47,320.08,496.08,319.63,496.71Z" fill="#72d4f7"/>
    <path d="M245.43,328.78c7-12.44,14-24.94,21.1-37.31q20.36-35.28,40.9-70.45c.39-.67.89-1.27,1.33-1.9,3.47,3.41,7.13,4.19,11.18.92.36-.29,1.07-.17,1.62-.24-3.73,6.72-7.38,13.48-11.19,20.15q-11,19.34-22.22,38.58T265.72,317c-2.19,3.75-4.48,7.44-6.72,11.15Z" fill="#7fdbf8"/>
    <path d="M321.56,219.8c-.55.07-1.26-.05-1.62.24-4.05,3.27-7.71,2.49-11.18-.92,7.6-13.39,15.13-26.81,22.81-40.16q17.7-30.78,35.57-61.47c.67-1.15,1.45-2.23,2.18-3.34,2.72,2.79,5.75,3.4,9.29,1.52a14.19,14.19,0,0,1,3.51-.84C378.76,121,375.49,127.2,372,133.3Q357.29,159,342.43,184.7C335.58,196.46,328.52,208.1,321.56,219.8Z" fill="#89dff8"/>
    <path d="M386.8,380.62c-2,.2-4,.09-5.87.68-3.82,1.22-4.74.7-4.87-3.41,0-.45,0-.89,0-1.34,4-7.7,7.8-15.55,12.12-23.08,9.19-16,18.65-31.78,28-47.65q7.67-13,15.36-25.95a4.43,4.43,0,0,1,1-.89c3.83,2.21,7.64,4.7,11.59.15.2-.23.85-.08,1.29-.11-6,10.69-12,21.41-18.16,32.05Q407.67,345.06,388,379C387.62,379.56,387.19,380.07,386.8,380.62Z" fill="#7bd8f7"/>
    <path d="M445.4,279c-.44,0-1.09-.12-1.29.11-3.95,4.55-7.76,2.06-11.59-.15,3.08-5.82,6-11.71,9.26-17.44q11.84-21,23.89-41.92t24.25-41.72a10,10,0,0,1,1.88-1.85,29.51,29.51,0,0,0-.47,4.56c.05,1.4.26,3.79.88,4a8.62,8.62,0,0,0,4.74-.63,37.36,37.36,0,0,0,4.82-2.5q-19.23,33.65-38.48,67.27C457.44,258.88,451.37,268.92,445.4,279Z" fill="#83dcf8"/>
    <path d="M59.15,674.69c-2.55.71-5.32,1-7.6,2.22-4.25,2.25-4.13,2.47-6-1.82C55,658.38,64.42,641.62,74,625c7.74-13.48,15.66-26.87,23.51-40.28a16.34,16.34,0,0,1,1.18-1.59,17.94,17.94,0,0,1,2,2.54c2,3.57,3.08,3.71,6.4,1.11,1-.82,2.54-1.06,3.82-1.56-6.93,12-13.9,23.94-20.79,36C83.91,632,77.78,642.88,71.6,653.76q-5.53,9.75-11.11,19.5A8.19,8.19,0,0,1,59.15,674.69Z" fill="#66d1f9"/>
    <path d="M245.43,328.78l13.57-.64c-1.34,2.79-2.52,5.67-4.06,8.34q-15.21,26.41-30.58,52.75c-5.18,8.85-10.57,17.59-15.86,26.38a17.11,17.11,0,0,0-2.6.33c-4.83,1.31-5.7,1-8.88-3.12.74-1.37,1.45-2.75,2.22-4.09q22.44-39,44.9-78.05C244.52,330,245,329.42,245.43,328.78Z" fill="#7bd8f7"/>
    <path d="M197,412.82c3.18,4.15,4,4.43,8.88,3.12a17.11,17.11,0,0,1,2.6-.33c-3.09,5.66-6.12,11.37-9.3,17-7.81,13.8-15.62,27.59-23.58,41.3-5.15,8.86-10.56,17.57-15.87,26.34a4.46,4.46,0,0,1-1,.85l-7.19,3.11-.48-3.34-4.48-1.15q13.36-23.22,26.73-46.45,10.63-18.42,21.34-36.81C195.38,415.19,196.23,414,197,412.82Z" fill="#72d4f7"/>
    <path d="M146.59,499.7l4.48,1.15.48,3.34,7.19-3.11c-3.84,7.31-7.5,14.72-11.55,21.91-7.95,14.1-16.07,28.11-24.21,42.11-3.92,6.75-8,13.39-12,20.08-1.28.5-2.78.74-3.82,1.56-3.32,2.6-4.43,2.46-6.4-1.11a17.94,17.94,0,0,0-2-2.54c5.89-10.53,11.66-21.13,17.68-31.58C126.35,534.19,136.51,517,146.59,499.7Z" fill="#6bd2f7"/>
    <path d="M501.77,181.44a37.36,37.36,0,0,1-4.82,2.5,8.62,8.62,0,0,1-4.74.63c-.62-.17-.83-2.56-.88-4a29.51,29.51,0,0,1,.47-4.56c4.38-8.26,8.51-16.68,13.2-24.77,10.62-18.32,21.51-36.49,32.31-54.71.67-1.14,1.51-2.19,2.27-3.28.36,2.12.72,4.23,1.14,6.68l9.64-2.63c-7.61,13.26-15.18,26.55-22.83,39.8Q514.71,159.31,501.77,181.44Z" fill="#89dff8"/>
    <path d="M533.62,573.7q13.57,23,27.14,45.92c.09.16,0,.42,0,1-1.38.07-2.78.19-4.19.19-57.39,0-114.79.38-172.17-.21-22.15-.23-42.28-14.65-49.33-39.88-4.07-14.61-2.41-28.47,5.81-41.37.62,1.14,1.24,2.27,1.85,3.42,1.66,3.15,2.69,3.38,5.55,1.28,1.83-1.35,3.7-2.63,5.56-3.95q-2.19,4.71-4.36,9.42a38.91,38.91,0,0,0-3.5,22.23c1.74,11.71,7,21.6,16.79,28.73,5.7,4.17,12.05,7.24,19.09,7.48,16.78.56,33.58.76,50.37.73,23.41,0,46.82-.43,70.23-.6,10.88-.09,21.75,0,32.63,0,1.17,0,2.33-.1,4.2-.19l-20.57-36.81c1.61.76,3.65,1.15,4.72,2.38,2,2.26,4.31,3.13,7.21,1.73Z" fill="#66d1f9"/>
    <path d="M353.85,540.09c-1.86,1.32-3.73,2.6-5.56,3.95-2.86,2.1-3.89,1.87-5.55-1.28-.61-1.15-1.23-2.28-1.85-3.42,6.05-10.71,12-21.46,18.16-32.12q32.37-56.3,64.85-112.52c.93-1.62,2-3.18,3.73-6,.6,1.37.85,2.11,1.23,2.78L493,502.83a22.55,22.55,0,0,1,.94,2.13c-4.27,2.92-8.57,2.8-12.9.15-.76-1.09-1.6-2.14-2.27-3.29q-7.65-13-15.25-26-12.25-21-24.52-42c-3.65-6.24-7.39-12.44-11.42-19.2-1.48,2-2.78,3.54-3.76,5.23-4.76,8.23-9.37,16.54-14.14,24.76q-19.1,32.93-38.28,65.8C365.58,520.31,359.69,530.19,353.85,540.09Z" fill="#72d4f7"/>
    <path d="M481,505.11c4.33,2.65,8.63,2.77,12.9-.15,6.14,10.39,12.37,20.72,18.4,31.17,7.19,12.47,14.21,25,21.3,37.57l-3,1.46c-2.9,1.4-5.22.53-7.21-1.73-1.07-1.23-3.11-1.62-4.72-2.38-.59-.95-1.21-1.88-1.77-2.84-9-15.3-18.05-30.56-26.92-45.93C486.81,516.69,484,510.84,481,505.11Z" fill="#6bd2f7"/>
    <path d="M604.19,633.65H740.75a19.3,19.3,0,0,1-3.48.63q-64.8,0-129.59,0A19.4,19.4,0,0,1,604.19,633.65Z" fill="#236d9d"/>
    <path d="M478.44,398.81l.54.72Z" fill="#72d4f7"/>
    <path d="M481,505.11c3,5.73,5.79,11.58,9,17.17,8.87,15.37,17.93,30.63,26.92,45.93.56,1,1.18,1.89,1.77,2.84l20.57,36.81c-1.87.09-3,.19-4.2.19-10.88,0-21.75-.06-32.63,0-23.41.17-46.82.57-70.23.6-16.79,0-33.59-.17-50.37-.73-7-.24-13.39-3.31-19.09-7.48-9.76-7.13-15-17-16.79-28.73a38.91,38.91,0,0,1,3.5-22.23q2.16-4.71,4.36-9.42c5.84-9.9,11.73-19.78,17.53-29.71q19.19-32.88,38.28-65.8c4.77-8.22,9.38-16.53,14.14-24.76,1-1.69,2.28-3.19,3.76-5.23,4,6.76,7.77,13,11.42,19.2q12.3,21,24.52,42,7.62,13,15.25,26C479.42,503,480.26,504,481,505.11Z" fill="#48c7f8"/>
  </g>
</svg>
