<svg id="Layer_1" data-name="Layer 1" xmlns="http://www.w3.org/2000/svg" viewBox="0 0 1001.83 1001.48">
  <g>
    <path d="M976.83,1001.48h-469Q484,960,460.23,918.6c-3-5.14-6.26-10.08-9.4-15.11a35.42,35.42,0,0,0-1.75-4.09q-18.34-32-36.8-63.91c-4.32-7.44-9-14.69-13.45-22a49,49,0,0,0-2-4.48q-18.17-31.69-36.42-63.35c-6.06-10.46-12.34-20.78-18.52-31.17l-24.09-43h684.06v306c-1,2.36-2,4.74-3.11,7.06C994.28,993.85,986.31,998.65,976.83,1001.48Z" fill="#3fc1f9"/>
    <path d="M1.83,710.48v-684a94,94,0,0,1,3.9-9.3c4.8-8.75,12.66-13.37,22.1-15.7h384Q389.36,40.39,366.9,79.29,344.57,118,322.23,156.66q-18.48,32-37,64-21.84,37.82-43.65,75.65-22.73,39.33-45.49,78.64Q172.42,416,148.77,457.06q-19.34,33.51-38.72,67Q86.49,564.9,63,605.79,41.27,643.41,19.54,681C13.78,690.91,7.74,700.66,1.83,710.48Z" fill="#1b72bd"/>
    <path d="M1001.83,135.48v256l-10.92,7.12c-2.53-.43-5.2-1.11-7.91-1.32-4.94-.38-3.1,4.29-4.34,6.65-6.72-4.15-9.15-2-10.38,2l-8.16,3-3.65-4.51-1.39,1c.37,1.44.75,2.88,1,4l-8.25-1.68c1.24,2.65,1.79,3.83,2.68,5.75-3.95-1.28-8.17,1.41-10.17-3.44-.16-.38-1.7-.62-2.29-.32-3.14,1.54-7.12,2.57-9,5.11C926,419,923,418.6,921,417.63c-4.62,2.68-8.4,6.75-11.54,6.31-7.06-1-13.13,0-18.85,3.78-3.24,2.16-5.77,2.58-7.5-1.88-1.12,1.26-2.34,3.16-2.74,3-5.11-2-9.44-.35-14.15,1.68-2.17.94-5.65-1.35-8-.58-2,.65-3.28,3.61-5.31,6.07v-6.52c-3.9,1.92-8.3,1.59-9.64,6.63-.23.88-3.81,1.9-5.1,1.28-3.52-1.68-6.68-4.14-9.91-6.39-4.6-3.19-7.63-2.29-9.39,3-1.24,3.75-4.12,5-7.38,3.9a17.32,17.32,0,0,1-6.77-4.63c-2.26-2.39-3.58-1.8-5,.55-.57,1-1,2-1.52,3.07a13.2,13.2,0,0,0-6.35.85c-4.45,1.38-9.06,5.84-12,.28-2.81.51-5.49,1.75-6.3,1-1.47-1.38-1.84-3.95-2.88-6.57l-6.52,7c-3-4-6.19-5.8-10.63-3.32-.69.38-2.25-.86-3.42-1.28-1.54-.55-3.08-1.41-4.65-1.46-2.12-.07-4.36,1-6.38.68-6.37-1.14-11.11.38-13.48,8.07l-9.25-10.06-4,7.3c-1.15-2.85-2.11-5.25-3-7.54-2.91,2.45-5.05,4.7-7.63,6.2-.91.54-2.87-.71-4.36-1.14.34-1.13.58-2.29,1-3.38s1.16-2.24,1.75-3.36c-1.45.32-3.25.22-4.29,1.06-3.62,2.92-10.38,3.14-13.56,0l-3.22,5c-1.58-2.5-2.73-4.34-3.9-6.18-2-3.1-3.81-6.58-7.62-1.66a4.23,4.23,0,0,1-2.69,1c-6,.54-12.23,1.81-17.27-3.21-.35-.34-1.25-.16-1.9-.16-6.2.05-12.31-.07-15-8-3.67,1.05-7,2.23-10.46,2.86-1.11.21-2.72-.76-3.69-1.64s-1.42-2.33-2.09-3.53c-.4,5.25-4.27,5.62-7.29,5.15s-5.76-2.59-8.9-4.12l1-4.3a12.73,12.73,0,0,0-2.43.74c-6,3.67-7.43,3.26-11.37-2.44-.68-1-3.64-1.68-4.39-1.07-2.94,2.39-4.93,1.55-7.35-.71a9,9,0,0,0-4.89-2.24c-8-.78-12.13-5.26-13-13.15l-21.23-1.17c.94-2.72-1-4.75-4.65-4.63-4.68.15-9.34,1.06-14,1.29-1.43.07-3.65-.59-4.26-1.65-4.78-8.17-13-11.53-21.05-14.54-6-2.26-11.51-4.19-14.13-12.1-.7,4.89-1.18,8.27-1.67,11.66-3.09-5.47-6-11.06-9.35-16.35-1.8-2.82-1.67-5.1-.1-7.79q16.23-27.92,32.37-55.89c.38-1,.76-2,1.15-2.95.34-.66.68-1.32,1-2a39,39,0,0,0,2.65-3.55q17.8-30.68,35.53-61.37c7.3-12.68,14.5-25.42,21.75-38.13q3.54-6,7.1-12c2.27-1.65,4.53-3.33,6.83-4.93,1.16-.82,2.41-1.51,3.63-2.25.71,1.49,2,3,2,4.47-.06,4.54.75,5.27,5.05,3.62,1.52-.59,3.46-2.08,4.51-1.61,4.45,2,9,4.09,12.8,7.08,3.52,2.77,5.53,7.86,11.8,6L609,189.07c3.85,2.15,6.47,2,8.83-1.64.84-1.29,3.47-2.84,4.39-2.39,3.95,1.9,6.33,6.78,12.06,5.49,1.31-.29,3.13,2.08,4.83,3,2.77,1.56,5.52,3.73,8.9,1.18.18-.14,1.15.26,1.25.57,1.41,4.44,5.32,2.58,8,2.89,6,.7,6.06.4,3,5.25,4.55,3.23,4.89,3.08,7.41-2.92,3.92.68,7.76,1.09,11.45,2.06s7.34,2.5,10.52,3.61c1.36-.93,2.73-2.55,3.8-2.38s1.58,2.35,2.58,3.42c1.56,1.67,3.32,3.16,4.94,4.67.8-3.4,1.29-5.52,1.78-7.64l6.32,4.23,7.44-5.21c.55,3.21.51,6.44,1.24,6.63,3.36.85,7.23,1.83,10.35.88s4.26.14,6.22,1.91c1.54,1.4,4.17,2.69,6.07,2.41,4.18-.62,8.18-2.33,12.29-3.46a4.53,4.53,0,0,1,2.41.46c3.49,1.28,6.59,6.93,10.67.87,4.41,1,9.06,1.58,13.17,3.34,3.12,1.35,4.47.91,5.92-1.84.8-1.51,2.15-2.73,3.62-4.55,2.53,7.23,2.5,7.12,9,4.9,2.31-.79,5-1.69,7.25-1.16,3.65.87,6.28-1.81,9.14-1.86,5.3-.08,4.52-4.28,5.88-7.06,3.15.86,6.79.79,8.67,2.58,3.12,3,4.73,2.09,6.73-.66.93-1.28,1.88-2.54,3.7-5,.25,2.49.26,3.67.5,4.79.33,1.49.85,2.94,1.29,4.41,1.36-.77,3.41-1.21,4-2.36,2.37-4.91,6.63-4.7,11-5,1.89-.11,3.76-1.17,5.57-2,2.14-.94,4.21-2.06,6.31-3.11,3.67-3.72,12.94-3.11,20,2.81,4.24-6.32,8.18-14.12,17.83-7.62,1-8.81,2.48-11.11,13.58-7.83.32.1.66.41.92.34a20.38,20.38,0,0,0,5-1.66c.52-.3.62-2.69.21-2.93a16.5,16.5,0,0,0-4.32-1.27c-1.44-.36-2.88-.69-4.32-1,2.39-1.1,4.88-.9,6.29-2,2.78-2.26,4.38-1.85,6.72.59.84.88,4,.79,5.08-.11a10.81,10.81,0,0,0,3.06-5.79c1-5.15,3.24-3.13,5.29-1.3,9.62-6.77,20.39-10.23,29.93-13.08l5.69,2.63c-.16-2-.32-4-.57-7.05,6.59-1.47,14.42-3.49,12-13.2Zm-222.45,298,.59.5c.09-.12.27-.32.25-.34a7,7,0,0,0-.57-.52Z" fill="#55d1fa"/>
    <path d="M1.83,978.48v-200l60.91-105,6.08-10c3.79.91,9.42.62,11,3,3.06,4.66,7,6,11.6,7.27.7.2,1,1.61,1.63,2.31,3,3.15,5.51,7.11,9.13,9.16,4.3,2.43,9.6,3,14.35,4.76,2.47.9,5.1,2,3.06,5.88-.42.8,1.63,4.16,2.72,4.26,3.76.34,7.61-.24,12.19-.52.21.84.61,2.48,1,4.13l-1.25-.3c-.86,1.39-1.71,2.79-2.56,4.18l5.74.3.62-1.24,9.07,9.84,5.49-.34v6.4l7,2-2.8,4.93h16.71v6.06c2.63-.16,4.91-.28,7.18-.43,3.54-.24,5.28,1,4.88,4.93-.31,3-.06,6.08-.06,10.23l10.66-5.76c-.1,6.15,4.31,9.49,10.27,8.07a4.7,4.7,0,0,1,3.85.87c.7.71.41,2.46.44,3.76s-.59,3.61,0,4c1.11.71,2.92.27,4.43.44s3.24.06,4.42.8c3.81,2.39,7.4,4.61,11.5-2-.1,8.57,4.33,10.37,10.26,11.68,4.16.92,10.21.55,11,7.32.06.52,1.25,1.22,2,1.3,4.4.49,5.71,3.18,5.11,6.61l18.72,4.51,3.68,5.36c4-3.14,7.48.72,11.24.82,1.54,0,3.19.56,4.6.18,3.72-1,4.93.51,4.78,4-.26,5.77,4.07,8.89,9.56,6.93,2.64-.94,4.64-1,5.9,2.34,2.42,6.31,7.06,10.18,13.94,11,8.92,15.38,17.79,30.79,26.79,46.13,3.93,6.71,8.11,13.26,12.19,19.88a30.61,30.61,0,0,0,1.64,4.15Q392.2,927,412,961.25c7.68,13.37,15.22,26.82,22.83,40.23h-409c-1.77-.75-3.52-1.53-5.3-2.24C10.91,995.36,5.93,987.32,1.83,978.48Z" fill="#39bdf9"/>
    <path d="M474.82,372.49c.49-3.39,1-6.77,1.67-11.66,2.62,7.91,8.13,9.84,14.13,12.1,8,3,16.27,6.37,21.05,14.54.61,1.06,2.83,1.72,4.26,1.65,4.68-.23,9.34-1.14,14-1.29,3.67-.12,5.59,1.91,4.65,4.63l21.23,1.17c.84,7.89,5,12.37,13,13.15a9,9,0,0,1,4.89,2.24c2.42,2.26,4.41,3.1,7.35.71.75-.61,3.71.09,4.39,1.07,3.94,5.7,5.32,6.11,11.37,2.44a12.73,12.73,0,0,1,2.43-.74l-1,4.3c3.14,1.53,5.89,3.65,8.9,4.12s6.89.1,7.29-5.15c.67,1.2,1.12,2.65,2.09,3.53s2.58,1.85,3.69,1.64c3.45-.63,6.79-1.81,10.46-2.86,2.68,7.93,8.79,8.05,15,8,.65,0,1.55-.18,1.9.16,5,5,11.23,3.75,17.27,3.21a4.23,4.23,0,0,0,2.69-1c3.81-4.92,5.65-1.44,7.62,1.66,1.17,1.84,2.32,3.68,3.9,6.18l3.22-5c3.18,3.11,9.94,2.89,13.56,0,1-.84,2.84-.74,4.29-1.06-.59,1.12-1.27,2.2-1.75,3.36s-.68,2.25-1,3.38c1.49.43,3.45,1.68,4.36,1.14,2.58-1.5,4.72-3.75,7.63-6.2.92,2.29,1.88,4.69,3,7.54l4-7.3,9.25,10.06c2.37-7.69,7.11-9.21,13.48-8.07,2,.36,4.26-.75,6.38-.68,1.57.05,3.11.91,4.65,1.46,1.17.42,2.73,1.66,3.42,1.28,4.44-2.48,7.62-.65,10.63,3.32l6.52-7c1,2.62,1.41,5.19,2.88,6.57.81.76,3.49-.48,6.3-1,2.91,5.56,7.52,1.1,12-.28a13.2,13.2,0,0,1,6.35-.85c.5-1,1-2.09,1.52-3.07,1.4-2.35,2.72-2.94,5-.55a17.32,17.32,0,0,0,6.77,4.63c3.26,1.07,6.14-.15,7.38-3.9,1.76-5.29,4.79-6.19,9.39-3,3.23,2.25,6.39,4.71,9.91,6.39,1.29.62,4.87-.4,5.1-1.28,1.34-5,5.74-4.71,9.64-6.63V436c2-2.46,3.3-5.42,5.31-6.07,2.36-.77,5.84,1.52,8,.58,4.71-2,9-3.73,14.15-1.68.4.16,1.62-1.74,2.74-3,1.73,4.46,4.26,4,7.5,1.88,5.72-3.82,11.79-4.78,18.85-3.78,3.14.44,6.92-3.63,11.54-6.31,2,1,5,1.33,8.09-2.73,1.91-2.54,5.89-3.57,9-5.11.59-.3,2.13-.06,2.29.32,2,4.85,6.22,2.16,10.17,3.44-.89-1.92-1.44-3.1-2.68-5.75l8.25,1.68c-.29-1.14-.67-2.58-1-4l1.39-1,3.65,4.51,8.16-3c1.23-4,3.66-6.15,10.38-2,1.24-2.36-.6-7,4.34-6.65,2.71.21,5.38.89,7.91,1.32l10.92-7.12v217q-192.54,0-385.08.09c-4.18,0-6.52-1.2-8.56-5-4.06-7.58-8.86-14.76-13.35-22.1a30.39,30.39,0,0,0-1.65-4.13q-11.69-20.27-23.46-40.45c-5.92-10.16-11.92-20.27-17.89-30.4-.4-.9-.71-1.85-1.2-2.71q-20.31-35.46-40.7-70.91c-5.89-10.2-12.06-20.25-18.1-30.37Zm263,67-2.43.78.68,1,1.74-1.81,1.36-1-.33-.33Zm11.91,0c-1.65-1.5-2.42-2.52-2.7-2.4-.77.33-1.77,1.1-1.84,1.78a2.46,2.46,0,0,0,1.52,1.93C747.54,440.85,748.46,440.07,749.74,439.46ZM553.56,402l-.49-.81-1,.81,1,.8ZM764.87,441c-.17.2-.34.39-.5.59.12.08.32.26.34.24a4.61,4.61,0,0,0,.51-.57Zm-222-43.1.38-.24a7,7,0,0,0-.48-.6s-.24.15-.36.23Z" fill="#4ccaf9"/>
    <path d="M1001.83,135.48l-12,4.46c2.39,9.71-5.44,11.73-12,13.2.25,3,.41,5,.57,7.05l-5.69-2.63c-9.54,2.85-20.31,6.31-29.93,13.08-2-1.83-4.26-3.85-5.29,1.3a10.81,10.81,0,0,1-3.06,5.79c-1,.9-4.24,1-5.08.11-2.34-2.44-3.94-2.85-6.72-.59-1.41,1.13-3.9.93-6.29,2,1.44.34,2.88.67,4.32,1a16.5,16.5,0,0,1,4.32,1.27c.41.24.31,2.63-.21,2.93a20.38,20.38,0,0,1-5,1.66c-.26.07-.6-.24-.92-.34-11.1-3.28-12.6-1-13.58,7.83-9.65-6.5-13.59,1.3-17.83,7.62-7.06-5.92-16.33-6.53-20-2.81-2.1,1.05-4.17,2.17-6.31,3.11-1.81.8-3.68,1.86-5.57,2-4.37.27-8.63.06-11,5-.56,1.15-2.61,1.59-4,2.36-.44-1.47-1-2.92-1.29-4.41-.24-1.12-.25-2.3-.5-4.79-1.82,2.46-2.77,3.72-3.7,5-2,2.75-3.61,3.63-6.73.66-1.88-1.79-5.52-1.72-8.67-2.58-1.36,2.78-.58,7-5.88,7.06-2.86.05-5.49,2.73-9.14,1.86-2.21-.53-4.94.37-7.25,1.16-6.48,2.22-6.45,2.33-9-4.9-1.47,1.82-2.82,3-3.62,4.55-1.45,2.75-2.8,3.19-5.92,1.84-4.11-1.76-8.76-2.29-13.17-3.34-4.08,6.06-7.18.41-10.67-.87a4.53,4.53,0,0,0-2.41-.46c-4.11,1.13-8.11,2.84-12.29,3.46-1.9.28-4.53-1-6.07-2.41-2-1.77-3-2.89-6.22-1.91s-7,0-10.35-.88c-.73-.19-.69-3.42-1.24-6.63l-7.44,5.21-6.32-4.23c-.49,2.12-1,4.24-1.78,7.64-1.62-1.51-3.38-3-4.94-4.67-1-1.07-1.57-3.25-2.58-3.42s-2.44,1.45-3.8,2.38c-3.18-1.11-6.78-2.64-10.52-3.61s-7.53-1.38-11.45-2.06c-2.52,6-2.86,6.15-7.41,2.92,3-4.85,3-4.55-3-5.25-2.72-.31-6.63,1.55-8-2.89-.1-.31-1.07-.71-1.25-.57-3.38,2.55-6.13.38-8.9-1.18-1.7-.95-3.52-3.32-4.83-3-5.73,1.29-8.11-3.59-12.06-5.49-.92-.45-3.55,1.1-4.39,2.39-2.36,3.61-5,3.79-8.83,1.64l4.61-4.21c-6.27,1.89-8.28-3.2-11.8-6-3.79-3-8.35-5.09-12.8-7.08-1.05-.47-3,1-4.51,1.61-4.3,1.65-5.11.92-5.05-3.62,0-1.48-1.32-3-2-4.47-1.22.74-2.47,1.43-3.63,2.25-2.3,1.6-4.56,3.28-6.83,4.93,3.64-6.52,7.23-13.08,11-19.55q15.42-26.77,30.94-53.48c4.14-7,8.35-13.91,12.42-20.92Q639.39,47.32,657.43,16c2.7-4.7,4.94-9.67,7.4-14.52h312c2.59,1,5.23,2,7.77,3.09,9.55,4.29,14.22,12.45,17.23,21.91Zm-21.12,8.62c.37.83.73,1.67,1.1,2.51,1.52-.7,3.07-1.36,4.51-2.2a17,17,0,0,0-1-2.34ZM778.84,209.6l-.57,1.68c.89.22,1.78.48,2.68.61a3.2,3.2,0,0,0,.4-1.16A27,27,0,0,0,778.84,209.6ZM600.2,172.09a5,5,0,0,0-1.33-.17c-.15,0-.24.51-.36.79a5.29,5.29,0,0,0,1.27.33C599.88,173.05,600,172.53,600.2,172.09Zm16,9a5.43,5.43,0,0,0-1.34-.16c-.15,0-.23.52-.34.8a5.85,5.85,0,0,0,1.28.32C615.9,182.05,616,181.53,616.2,181.08Zm120.68,26.86.38-.24a7,7,0,0,0-.48-.6s-.24.15-.36.23Zm146.39-16.42-.59-.5c-.09.12-.27.32-.24.35a4,4,0,0,0,.57.51Zm-145,20-.59-.5c-.09.12-.27.32-.24.35a4,4,0,0,0,.57.51Z" fill="#5ed7fa"/>
    <path d="M620.83,1.48h15c-1.25,2.71-2.31,5.52-3.77,8.1-4.17,7.4-8.53,14.69-12.77,22q-25.81,44.77-51.61,89.57Q543,164,518.19,206.79,491,253.92,463.77,301.07q-13.62,23.58-27.29,47.1c-1.7,2.92-1.75,5.34.18,8.28,3,4.57,5.54,9.48,8.28,14.24q25.43,44.15,50.88,88.26,22.86,39.57,45.78,79.1c17.24,29.83,34.56,59.62,51.53,89.61,2.64,4.66,5.68,5.92,10.72,5.92q199-.18,398-.1v13H274.58c1.17,2.33,1.7,3.5,2.33,4.62q8.46,14.71,16.94,29.42,25.56,44.34,51.13,88.66,23,39.78,46,79.54,25.59,44.31,51.14,88.65,18.44,32,36.74,64.11h-15a26.1,26.1,0,0,0-1.18-2.71q-19.09-33.07-38.22-66.13-27.07-46.92-54.09-93.87-27-46.69-54-93.33c-19.65-34-39.21-68.06-59-102-2.31-4-2.36-7.05,0-11,6.84-11.22,13.35-22.64,19.92-34q26-45,51.87-90,24.58-42.6,49.2-85.16,27.08-46.92,54.12-93.85,26.83-46.49,53.75-92.91,31-53.84,62-107.73,32.32-56,64.74-111.92C615.88,12,618.23,6.64,620.83,1.48Zm-39.06,632L427.18,365.73c-.86.69-1.2.84-1.35,1.1q-20.76,35.85-41.5,71.72c-17.3,30-34.32,60.11-51.95,89.88-9.62,16.24-15.81,33-12.26,52.1a64.81,64.81,0,0,0,63.71,52.94q95.46.06,190.9,0Z" fill="#0567a9"/>
    <path d="M449.83,1.48h143q-18.17,31.48-36.3,63c-5.69,9.92-11.17,20-16.74,29.94-5.95,10-11.93,19.88-17.82,29.86-8.08,13.72-16.09,27.48-24.14,41.23-1.55-4.51-5.53-7.22-7.28-12.21a34.34,34.34,0,0,0-19.08-20.09c-.79-.35-1.34-1.74-1.6-2.75-1.09-4.27-4.17-5.86-8.52-6.93.46,2.19.78,3.78,1.11,5.36l-1.22.77c-1.77-2-3.5-4-5.31-5.94-1.57-1.68-3-4.42-4.87-4.71-5.8-.93-4.23-5.42-5-9.16l5.14,1.84a5.7,5.7,0,0,0-2.34-3.37c-3-2.73-6-5.52-9-8.25-2.07-1.86-4.19-3.66-6.29-5.49l-1.41.92,2.54-9c-9,4.88-13.44,3.73-19.42-4.46,1.41-2.82,7.89-2.92,5.28-7.84-1.56-3-4.51-5.16-6.83-7.7,8-14.11,16.06-28.18,24-42.33C441.87,16.64,445.79,9,449.83,1.48Zm7.41,116.38a5.32,5.32,0,0,0,.14-1.34c0-.14-.52-.22-.8-.34a5.91,5.91,0,0,0-.31,1.29C456.26,117.56,456.79,117.69,457.24,117.86Zm-4.75-4.22-1,.6a4.35,4.35,0,0,0,.83.92c.12.08.76-.36.74-.42A5.91,5.91,0,0,0,452.49,113.64Z" fill="#5cd6fa"/>
    <path d="M620.83,1.48c-2.6,5.16-5,10.47-7.83,15.46q-32.28,56-64.74,111.92-31.08,53.82-62,107.73-26.82,46.48-53.75,92.91-27.09,46.9-54.12,93.85-24.57,42.58-49.2,85.16-25.95,45-51.87,90c-6.57,11.39-13.08,22.81-19.92,34-2.39,3.91-2.34,7,0,11,19.78,33.93,39.34,68,59,102q27,46.68,54,93.33,27.09,46.9,54.09,93.87,19.08,33.08,38.22,66.13a26.1,26.1,0,0,1,1.18,2.71h-15a43.15,43.15,0,0,0-1.83-4q-15.06-26.19-30.19-52.35-17.91-30.86-35.93-61.65c-.74-1.48-1.4-3-2.23-4.43q-21.56-37.42-43.16-74.8c-10.43-18-21-35.9-31.45-53.85-.67-1.33-1.27-2.69-2-4q-30.13-52.27-60.37-104.5c-1.62-2.79-1.86-4.84-.08-7.66,3-4.75,5.55-9.81,8.28-14.74.9-1.38,1.88-2.72,2.7-4.14q21.84-37.79,43.63-75.58c8.28-14.39,16.46-28.85,24.68-43.28.7-1.21,1.39-2.43,2.09-3.65l1.94-3.33c3.26-5.73,6.45-11.5,9.79-17.18,5.19-8.85,10.61-17.57,15.73-26.45q18.25-31.67,36.33-63.42c7.86-13.44,15.78-26.85,23.56-40.34q18-31.22,35.83-62.54c9.9-17,19.87-33.92,29.69-50.94,8.46-14.66,16.76-29.4,25.13-44.11l48.66-84.06,57.21-99Z" fill="#085080"/>
    <path d="M1001.83,633.48q-199,0-398,.1c-5,0-8.08-1.26-10.72-5.92-17-30-34.29-59.78-51.53-89.61q-22.86-39.57-45.78-79.1-25.47-44.1-50.88-88.26c-2.74-4.76-5.26-9.67-8.28-14.24-1.93-2.94-1.88-5.36-.18-8.28q13.72-23.49,27.29-47.1,27.21-47.13,54.42-94.28,24.73-42.81,49.49-85.6,25.83-44.77,51.61-89.57c4.24-7.35,8.6-14.64,12.77-22,1.46-2.58,2.52-5.39,3.77-8.1h15a27.06,27.06,0,0,1-1.54,4c-11.06,19.22-22.2,38.4-33.25,57.63-6.51,11.33-12.89,22.74-19.32,34.12-6.62,11.25-13.32,22.45-19.84,33.76-9.8,17-19.48,34.11-29.22,51.18-8.78,15-17.64,30-26.33,45-11.91,20.67-23.7,41.41-35.54,62.13l-.75,1.08-.43.94c-11.35,19.49-22.73,39-34,58.53a5.34,5.34,0,0,0-.1,4.49c8.64,15.09,17.46,30.08,26.24,45.09,6.31,11.12,12.55,22.28,19,33.35Q517.32,470.2,539,507.47c2.59,4.61,5.12,9.26,7.77,13.83q19,32.63,38,65.2c6.06,10.7,12,21.46,18.32,32,.74,1.22,3.31,1.92,5,1.92q196.88.1,393.73,0Z" fill="#085080"/>
    <path d="M478.83,1001.48q-18.37-32.06-36.74-64.11Q416.58,893,391,848.72q-23-39.78-46-79.54-25.59-44.31-51.13-88.66-8.48-14.7-16.94-29.42c-.63-1.12-1.16-2.29-2.33-4.62h727.25v13H296.45l35.54,61c4,7.08,7.92,14.2,12,21.23q22,37.92,44,75.79c1.09,1.77,2.17,3.55,3.25,5.32l.08.31,49.74,86.35c.78,1.46,1.51,2.95,2.34,4.38q25.2,43.83,50.42,87.64Z" fill="#074f7f"/>
    <path d="M1.83,753.48v-26A30.07,30.07,0,0,0,4.56,724q41-70.89,81.93-141.83Q128.28,509.74,170,437.25q48.42-83.92,96.89-167.8Q309,196.6,351.18,123.78q28.11-48.65,56.14-97.33c4.71-8.21,9-16.64,13.51-25h16Q415.92,37.57,395,73.66c-8.16,14.16-16.18,28.4-24.26,42.61l-.79,1.19-.5.88c-7.6,13-15.28,26-22.81,39.08q-18.6,32.29-37.06,64.68c-11.1,19-22.25,38-33.27,57.12-9.6,16.64-19.05,33.37-28.56,50.07l-.79,1.16-.46.9Q228.1,363,209.7,394.7c-.78,1.37-1,3.05-1.81,4.41-3,5.08-6.1,10.09-9.16,15.12l-50.5,87.11c-8.74,15-17.53,30-26.2,45.1-6.85,11.9-13.56,23.88-20.32,35.82-10.89,18.63-21.83,37.22-32.62,55.9-3.62,6.25-6.73,12.79-10.29,19.08-3.23,5.71-6.75,11.25-10.15,16.87-.91,1.37-1.91,2.7-2.74,4.13q-20.49,35.44-41,70.91C4.05,750.68,2.87,752,1.83,753.48Z" fill="#085080"/>
    <path d="M332,720.46l-35.54-61h705.38v12H317.77l24.09,43Z" fill="#63d0fa"/>
    <path d="M420.83,1.48c-4.5,8.33-8.8,16.76-13.51,25q-28,48.72-56.14,97.33-42.12,72.84-84.27,145.67Q218.45,353.33,170,437.25,128.23,509.7,86.49,582.19,45.57,653.14,4.56,724a30.07,30.07,0,0,1-2.73,3.46v-17c5.91-9.82,12-19.57,17.71-29.48Q41.35,643.46,63,605.79q23.57-40.87,47.09-81.74,19.33-33.51,38.72-67,23.7-41.07,47.36-82.15,22.71-39.35,45.49-78.64,21.84-37.81,43.65-75.65,18.47-32,37-64Q344.58,118,366.9,79.29q22.46-38.91,44.93-77.81Z" fill="#0567a9"/>
    <path d="M1001.83,620.48q-196.86,0-393.73,0c-1.71,0-4.28-.7-5-1.92-6.29-10.56-12.26-21.32-18.32-32,7.25.93,8.82.15,10.08-5,4.49,7.34,9.29,14.52,13.35,22.1,2,3.82,4.38,5,8.56,5q192.54-.15,385.08-.09Z" fill="#67d2fa"/>
    <path d="M370.76,116.27c8.08-14.21,16.1-28.45,24.26-42.61q20.84-36.13,41.81-72.18h13c-4,7.55-8,15.16-12.14,22.63-7.91,14.15-16,28.22-24,42.33-7,11.44-14,22.84-20.92,34.33-3.48,5.81-6.66,11.8-10,17.71-4.46.85-8.95,5.23-13.35-.14l.5-.88Z" fill="#91e4fa"/>
    <path d="M380.88,883.45q18,30.82,35.93,61.65Q432,971.23,447,997.45a43.15,43.15,0,0,1,1.83,4h-14c-7.61-13.41-15.15-26.86-22.83-40.23q-19.72-34.34-39.56-68.6a30.61,30.61,0,0,1-1.64-4.15c1.63.21,3.26.42,4.89.61s3.07.36,4.61.53c0-1.46,0-2.93,0-4.39A8.06,8.06,0,0,1,380.88,883.45Z" fill="#4dc5f8"/>
    <path d="M606.83,1.48l-57.21,99L539,105a28.09,28.09,0,0,1-.25-4.28c.19-2.11.66-4.2,1-6.3,5.58-10,11.06-20,16.75-29.94q18.06-31.54,36.3-63Z" fill="#91e4fa"/>
    <path d="M596.72,97.26c6.43-11.38,12.81-22.79,19.32-34.12,11.05-19.23,22.19-38.41,33.25-57.63a27.06,27.06,0,0,0,1.54-4h14c-2.46,4.85-4.7,9.82-7.4,14.52q-18,31.35-36.19,62.56c-4.07,7-8.28,14-12.42,20.92a14.63,14.63,0,0,0-3.23.88C601.46,102.56,598.46,101.78,596.72,97.26Z" fill="#91e4fa"/>
    <path d="M493.83,1001.48q-25.21-43.82-50.42-87.64c-.83-1.43-1.56-2.92-2.34-4.38l4.25-1.58,4,4.38,1.89-.44-.42-8.33c3.15,5,6.45,10,9.41,15.11q23.86,41.4,47.6,82.88Z" fill="#4dc5f8"/>
    <path d="M1.83,753.48c1-1.44,2.22-2.8,3.11-4.33q20.52-35.45,41-70.91c.83-1.43,1.83-2.76,2.74-4.13,1.89,5.08,1.76,4.76,5.89,1.71,2.14-1.59,5.43-1.62,8.2-2.36l-60.91,105Z" fill="#5ecdf9"/>
    <path d="M27.83,1.48c-9.44,2.33-17.3,7-22.1,15.7a94,94,0,0,0-3.9,9.3v-25Z" fill="#fbfdfe"/>
    <path d="M1001.83,26.48c-3-9.46-7.68-17.62-17.23-21.91-2.54-1.14-5.18-2.06-7.77-3.09h25Z" fill="#fbfdfe"/>
    <path d="M976.83,1001.48c9.48-2.83,17.45-7.63,21.89-16.94,1.11-2.32,2.08-4.7,3.11-7.06v24Z" fill="#fbfdfe"/>
    <path d="M1.83,978.48c4.1,8.84,9.08,16.88,18.7,20.76,1.78.71,3.53,1.49,5.3,2.24h-24Z" fill="#fbfdfe"/>
    <path d="M332,720.46l9.87-6c6.18,10.39,12.46,20.71,18.52,31.17Q378.69,777.25,396.8,809a49,49,0,0,1,2,4.48c1,4,2,8,3.25,12.88-1.49-.5-2.92-1-4.39-1.47-2.11-.63-4.24-1.19-6.36-1.77,0,0-.08-.31-.07-.31.82-2.94.13-5-3.26-5.32q-22-37.89-44-75.79C339.91,734.66,336,727.54,332,720.46Z" fill="#5acbf8"/>
    <path d="M391.33,823.11c2.12.58,4.25,1.14,6.36,1.77,1.47.44,2.9,1,4.39,1.47-1.22-4.84-2.23-8.86-3.25-12.88,4.49,7.33,9.13,14.58,13.45,22q18.51,31.88,36.8,63.91a35.42,35.42,0,0,1,1.75,4.09q.19,4.15.41,8.33l-1.89.44-4-4.38-4.25,1.58Z" fill="#57caf8"/>
    <path d="M485.79,289.37c11.84-20.72,23.63-41.46,35.54-62.13,8.69-15.07,17.55-30,26.33-45,3.3,4.8,7.74,3.53,12.17,2.28-7.25,12.71-14.45,25.45-21.75,38.13q-17.7,30.72-35.53,61.37a39,39,0,0,1-2.65,3.55l-1,2c-.39,1-.77,2-1.15,2.95l-8.46,4.29c-1.28-1.47-3-3.42-4.67-5.36l.43-.94Z" fill="#84defa"/>
    <path d="M484.61,291.39c1.7,1.94,3.39,3.89,4.67,5.36l8.46-4.29q-16.19,27.94-32.37,55.89c-1.57,2.69-1.7,5,.1,7.79,3.37,5.29,6.26,10.88,9.35,16.35l17,30-2.13,4.29-12.93-7.27c-8.78-15-17.6-30-26.24-45.09a5.34,5.34,0,0,1,.1-4.49C461.88,330.36,473.26,310.88,484.61,291.39Z" fill="#7cdaf9"/>
    <path d="M559.83,184.48c-4.43,1.25-8.87,2.52-12.17-2.28C557.4,165.13,567.08,148,576.88,131c6.52-11.31,13.22-22.51,19.84-33.76,1.74,4.52,4.74,5.3,8.87,3.1a14.63,14.63,0,0,1,3.23-.88Q593.34,126.21,577.88,153c-3.72,6.47-7.31,13-11,19.55Q563.38,178.5,559.83,184.48Z" fill="#8be1fa"/>
    <path d="M779.38,433.44l.27-.36a7,7,0,0,1,.57.52s-.16.22-.25.34Z" fill="#4ccaf9"/>
    <path d="M498.89,289.51l1-2C499.57,288.19,499.23,288.85,498.89,289.51Z" fill="#7cdaf9"/>
    <path d="M331.82,822.49c-6.88-.87-11.52-4.74-13.94-11-1.26-3.31-3.26-3.28-5.9-2.34-5.49,2-9.82-1.16-9.56-6.93.15-3.47-1.06-5-4.78-4-1.41.38-3.06-.13-4.6-.18-3.76-.1-7.24-4-11.24-.82l-3.68-5.36-18.72-4.51c.6-3.43-.71-6.12-5.11-6.61-.72-.08-1.91-.78-2-1.3-.78-6.77-6.83-6.4-11-7.32-5.93-1.31-10.36-3.11-10.26-11.68-4.1,6.62-7.69,4.4-11.5,2-1.18-.74-2.92-.64-4.42-.8s-3.32.27-4.43-.44c-.61-.4,0-2.62,0-4s.26-3-.44-3.76a4.7,4.7,0,0,0-3.85-.87c-6,1.42-10.37-1.92-10.27-8.07l-10.66,5.76c0-4.15-.25-7.22.06-10.23.4-3.89-1.34-5.17-4.88-4.93-2.27.15-4.55.27-7.18.43v-6.06H156.77l2.8-4.93-7-2v-6.4l-5.49.34-9.07-9.84-.62,1.24-5.74-.3c.85-1.39,1.7-2.79,2.56-4.18l1.25.3c-.41-1.65-.81-3.29-1-4.13-4.58.28-8.43.86-12.19.52-1.09-.1-3.14-3.46-2.72-4.26,2-3.85-.59-5-3.06-5.88-4.75-1.72-10.05-2.33-14.35-4.76-3.62-2.05-6.16-6-9.13-9.16-.65-.7-.93-2.11-1.63-2.31-4.59-1.3-8.54-2.61-11.6-7.27-1.56-2.37-7.19-2.08-11-3,3.11-5.85,6.07-11.79,9.38-17.53q17.72-30.8,35.62-61.47a14.93,14.93,0,0,0,1.22-1.56q16.88-29.17,33.69-58.38c4.53-7.93,8.78-16,13.16-24l4.84-6.09,4.79-3.95c2.84,3.15,5,7.76,7.86,8.17,4,.58,5.63,2.08,6.47,4.9l10.47-1,.64,1.57-5.82,10.31c2.16.25,4.55,1,6.79.68,3.69-.5,7.38-1.86,6.41,4.33-.08.48.52,1.16.95,1.62,3.58,3.79,7.19,7.54,10.69,11.2l6.81-5.45,1.43.31c-2.39,4.84-3.67,9.34,2.72,11.43.7-.83,1.55-1.84,3.38-4,.14,2.89.5,4.46.24,5.93-.61,3.39.27,4.24,3.68,3.15a18.71,18.71,0,0,1,7.19-.64c4.5.41,5.68,2.79,3.77,7.07-.73,1.65-1.64,3.23-2.88,5.63,4-.54,7.29-.82,10.54-1.52,1.58-.34,3-1.46,4.48-2.23a39.14,39.14,0,0,1,2.41,5.55c.51,1.93.12,4.11.74,6a57.4,57.4,0,0,0,3.37,7c-4.23,7.47-8.5,14.92-12.68,22.42s-8.25,15-12.36,22.52c-3.25,5.21-6.41,10.48-9.79,15.6-3,4.63-3.6,8.78.1,13.59,3.1,4.06,5.16,8.91,7.74,13.37q21.11,36.5,42.26,73c4.41,7.59,9.1,15,13.66,22.52,2.39,4.54,4.64,9.17,7.18,13.63Q315.83,794.86,331.82,822.49ZM219.72,754l-1.71.43c.31.86.58,1.73,1,2.55a3.28,3.28,0,0,0,1.19-.31A27,27,0,0,0,219.72,754Zm21.33,10.61A6.67,6.67,0,0,0,239,764c-.3,0-.84.82-.76,1,.27.46.77,1,1.21,1.07S240.24,765.37,241.05,764.61Zm-.86-219.09-1.2.12c.17.74.33,1.47.5,2.21l.82-.11ZM88.38,667.44l.59.5c.09-.12.27-.32.25-.34a7,7,0,0,0-.57-.52Z" fill="#3fc2f9"/>
    <path d="M331.82,822.49Q315.88,794.82,300,767.14c-2.54-4.46-4.79-9.09-7.18-13.63a19.16,19.16,0,0,1,3.4.13c2.27.46,7.14-1.48,7.85-3.27,10.48,18,21,35.87,31.45,53.85q21.64,37.35,43.16,74.8c.83,1.43,1.49,3,2.23,4.43a8.06,8.06,0,0,0-.54,1.8c-.08,1.46,0,2.93,0,4.39-1.54-.17-3.07-.34-4.61-.53s-3.26-.4-4.89-.61c-4.08-6.62-8.26-13.17-12.19-19.88C349.61,853.28,340.74,837.87,331.82,822.49Z" fill="#57caf8"/>
    <path d="M113.82,584.48Q96,615.2,78.2,646c-3.31,5.74-6.27,11.68-9.38,17.53l-6.08,10c-2.77.74-6.06.77-8.2,2.36-4.13,3-4,3.37-5.89-1.71,3.4-5.62,6.92-11.16,10.15-16.87,3.56-6.29,6.67-12.83,10.29-19.08,10.79-18.68,21.73-37.27,32.62-55.9a16.4,16.4,0,0,1,1.09,2.23c1.46,4.5,3.66,5,7,1.62C110.78,585.18,112.47,585,113.82,584.48Z" fill="#67d2fa"/>
    <path d="M476.78,399.5l12.93,7.27,2.13-4.29c6,10.12,12.21,20.17,18.1,30.37q20.46,35.4,40.7,70.91c.49.86.8,1.81,1.2,2.71-.65,1.59-1.3,3.18-2.18,5.36-1.92-1.42-3.28-2.89-4.95-3.55s-3.78-.57-5.69-.81q-21.66-37.31-43.29-74.62C489.33,421.78,483.09,410.62,476.78,399.5Z" fill="#73d6f9"/>
    <path d="M539,507.47c1.91.24,4,.13,5.69.81s3,2.13,4.95,3.55c.88-2.18,1.53-3.77,2.18-5.36,6,10.13,12,20.24,17.89,30.4q11.79,20.19,23.46,40.45a30.39,30.39,0,0,1,1.65,4.13c-1.26,5.2-2.83,6-10.08,5q-19-32.6-38-65.2C544.14,516.73,541.61,512.08,539,507.47Z" fill="#6cd3f9"/>
    <path d="M749.74,439.46c-1.28.61-2.2,1.39-3,1.31a2.46,2.46,0,0,1-1.52-1.93c.07-.68,1.07-1.45,1.84-1.78C747.32,436.94,748.09,438,749.74,439.46Z" fill="#55d1fa"/>
    <path d="M737.82,439.48l-1.74,1.81-.68-1,2.43-.78Z" fill="#55d1fa"/>
    <path d="M553.56,402l-.49.8-1-.8,1-.81Z" fill="#55d1fa"/>
    <path d="M764.87,441l.35.26a4.61,4.61,0,0,1-.51.57s-.22-.16-.34-.24C764.53,441.43,764.7,441.24,764.87,441Z" fill="#55d1fa"/>
    <path d="M737.83,439.48l1-1.35.33.33-1.36,1Z" fill="#55d1fa"/>
    <path d="M542.88,397.94l-.46-.61c.12-.08.33-.25.36-.23a7,7,0,0,1,.48.6Z" fill="#55d1fa"/>
    <path d="M980.71,144.1l4.63-2a17,17,0,0,1,1,2.34c-1.44.84-3,1.5-4.51,2.2C981.44,145.77,981.08,144.93,980.71,144.1Z" fill="#55d1fa"/>
    <path d="M778.84,209.6a27,27,0,0,1,2.51,1.13,3.2,3.2,0,0,1-.4,1.16c-.9-.13-1.79-.39-2.68-.61Z" fill="#55d1fa"/>
    <path d="M600.2,172.09c-.19.44-.32,1-.42.95a5.29,5.29,0,0,1-1.27-.33c.12-.28.21-.77.36-.79A5,5,0,0,1,600.2,172.09Z" fill="#55d1fa"/>
    <path d="M616.2,181.08c-.18.45-.3,1-.4,1a5.85,5.85,0,0,1-1.28-.32c.11-.28.19-.78.34-.8A5.43,5.43,0,0,1,616.2,181.08Z" fill="#55d1fa"/>
    <path d="M736.88,207.94l-.46-.61c.12-.08.33-.25.36-.23a7,7,0,0,1,.48.6Z" fill="#55d1fa"/>
    <path d="M883.27,191.52l-.26.36a4,4,0,0,1-.57-.51s.15-.23.24-.35Z" fill="#55d1fa"/>
    <path d="M738.27,211.52l-.26.36a4,4,0,0,1-.57-.51s.15-.23.24-.35Z" fill="#55d1fa"/>
    <path d="M581.77,633.48h-7q-95.44,0-190.9,0a64.81,64.81,0,0,1-63.71-52.94c-3.55-19.11,2.64-35.86,12.26-52.1C350,498.66,367,468.52,384.33,438.55q20.71-35.88,41.5-71.72c.15-.26.49-.41,1.35-1.1ZM490.36,501.23Q459,446.78,427.55,392.33c-.13-.21-.56-.25-1.2-.52-1.13,1.92-2.31,3.87-3.45,5.85Q400.21,437,377.53,476.32q-18,31.33-36,62.75c-8.34,13.31-10.16,27.69-5.84,42.57,6.95,23.94,27,38.79,51.93,38.84q83.43.15,166.85,0c1.29,0,2.57-.13,4.87-.26l-27.49-46.8c-1.07-2.05-2-4.16-3.21-6.16q-17.81-30.6-35.65-61.16l-1-1.72Z" fill="#085080"/>
    <path d="M382.82,118.48c3.32-5.91,6.5-11.9,10-17.71,6.88-11.49,13.93-22.89,20.92-34.33,2.32,2.54,5.27,4.75,6.83,7.7,2.61,4.92-3.87,5-5.28,7.84,6,8.19,10.4,9.34,19.42,4.46l-2.54,9,1.41-.92c2.1,1.83,4.22,3.63,6.29,5.49,3,2.73,6,5.52,9,8.25a5.7,5.7,0,0,1,2.34,3.37l-5.14-1.84c.73,3.74-.84,8.23,5,9.16,1.83.29,3.3,3,4.87,4.71,1.81,1.94,3.54,4,5.31,5.94l1.22-.77c-.33-1.58-.65-3.17-1.11-5.36,4.35,1.07,7.43,2.66,8.52,6.93.26,1,.81,2.4,1.6,2.75a34.34,34.34,0,0,1,19.08,20.09c1.75,5,5.73,7.7,7.28,12.21q-3.52,6.94-7.06,13.89a28.34,28.34,0,0,0-2.41,3.1Q469.64,214.83,451,247.21c-6.52,11.36-12.85,22.83-19.26,34.26q-15,25.47-29.91,51c-4.94,8.39-10,16.73-15,25.1-2-2.38.09-7.1-5.22-7.77-4.17-.53-8.19-2.15-6.19-8.27.45-1.38-1.71-3.6-2.67-5.44-1.32,1-3,1.84-3.88,3.16-2,2.85-5.24,2.94-6.88-.2-1.5-2.88-2.76-5.88-4.21-9a10.46,10.46,0,0,0-1.85.3c-3.82,1.29-6.68,2.36-5.63-4.12.8-4.92-6.06-8.31-10.84-6.1-.59.27-1.6-.4-2-.51a69.36,69.36,0,0,0,3.12-7.92c.66-2.57-.32-5.1-3.34-4.84-4.11.35-8.37-3.09-12.37.44-.22.2-1.13-.38-2.07-.73.84-2.92,1.64-5.66,2.56-8.85a40.73,40.73,0,0,0-5.49,0c-6.81,1-6.83,1-6.72-5.44-2.55-1.11-5-2.73-7.72-3.24-4.28-.82-5.95-2.7-5.2-7.15.4-2.41-1.13-3.7-3.79-2.8-2.51.84-5,1.61-7.55,2.42l33.83-59c4.31-7.27,8.66-14.52,12.91-21.83q14.15-24.36,28.19-48.8C370.27,140.75,376.52,129.6,382.82,118.48Z" fill="#54d0fa"/>
    <path d="M490.77,179.39q3.54-6.94,7.06-13.89c8.05-13.75,16.06-27.51,24.14-41.23,5.89-10,11.87-19.91,17.82-29.86-.36,2.1-.83,4.19-1,6.3A28.09,28.09,0,0,0,539,105l10.6-4.52L501,184.53c-1.72.87-3.9,1.34-5.08,2.68-2.44,2.78-4.36,1.58-5.63.84C490.46,184.53,490.62,182,490.77,179.39Z" fill="#8be1fa"/>
    <path d="M457.24,117.86c-.45-.17-1-.3-1-.39a5.91,5.91,0,0,1,.31-1.29c.28.12.78.2.8.34A5.32,5.32,0,0,1,457.24,117.86Z" fill="#54d0fa"/>
    <path d="M452.49,113.64a5.91,5.91,0,0,1,.59,1.1c0,.06-.62.5-.74.42a4.35,4.35,0,0,1-.83-.92Z" fill="#54d0fa"/>
    <path d="M304,750.37c-.71,1.79-5.58,3.73-7.85,3.27a19.16,19.16,0,0,0-3.4-.13c-4.56-7.5-9.25-14.93-13.66-22.52q-21.22-36.43-42.26-73c-2.58-4.46-4.64-9.31-7.74-13.37-3.7-4.81-3.14-9-.1-13.59,3.38-5.12,6.54-10.39,9.79-15.6,4.15,6.64,4.15,6.64,11,4-2.73,4.93-5.26,10-8.28,14.74-1.78,2.82-1.54,4.87.08,7.66Q272,694.08,302,746.39C302.77,747.68,303.37,749,304,750.37Z" fill="#62cff9"/>
    <path d="M249.86,619.49c-6.89,2.62-6.89,2.62-11-4,4.11-7.51,8.19-15,12.36-22.52s8.45-15,12.68-22.42a9.17,9.17,0,0,0,1.72-1.75c8.11-14.07,16.11-28.21,24.25-42.25,6.23-10.74,12.64-21.37,19-32l6.95-.32,5.12,2.33c-8.22,14.43-16.4,28.89-24.68,43.28q-21.76,37.82-43.63,75.58C251.74,616.77,250.76,618.11,249.86,619.49Z" fill="#6cd3f9"/>
    <path d="M320.87,496.49l-5.12-2.33-6.95.32a9.87,9.87,0,0,1,.66-1.87q26.19-45.6,52.45-91.16c4.47-7.74,9.2-15.32,13.82-23,.22.42.62.83.63,1.26.07,5.11.43,5.2,4.94,3,1.5-.74,3.62-.22,5.45-.28q-18.15,31.71-36.33,63.42c-5.12,8.88-10.54,17.6-15.73,26.45-3.34,5.68-6.53,11.45-9.79,17.18L323,492.84C322.26,494.06,321.57,495.28,320.87,496.49Z" fill="#73d6f9"/>
    <path d="M386.75,382.46c-1.83.06-3.95-.46-5.45.28-4.51,2.19-4.87,2.1-4.94-3,0-.43-.41-.84-.63-1.26.79-1.63,1.52-3.28,2.38-4.87,2.9-5.37,5.86-10.72,8.8-16.07,5-8.37,10-16.71,14.94-25.1q15-25.47,29.91-51l7.16,3.65,7.22-5.54q-17.91,31.28-35.83,62.54C402.53,355.61,394.61,369,386.75,382.46Z" fill="#7cdaf9"/>
    <path d="M446.13,279.58l-7.21,5.54-7.16-3.65c6.41-11.43,12.74-22.9,19.26-34.26q18.57-32.42,37.34-64.72a28.34,28.34,0,0,1,2.41-3.1c-.15,2.57-.31,5.14-.52,8.66,1.27.74,3.19,1.94,5.63-.84,1.18-1.34,3.36-1.81,5.08-2.68-8.37,14.71-16.67,29.45-25.13,44.11C466,245.66,456,262.6,446.13,279.58Z" fill="#84defa"/>
    <path d="M323,492.84l1.94-3.33Z" fill="#6cd3f9"/>
    <path d="M485.79,289.37l-.75,1.08Z" fill="#7cdaf9"/>
    <path d="M388,817.48c3.39.36,4.08,2.38,3.26,5.32Z" fill="#57caf8"/>
    <path d="M322.8,222.47l-33.84,59q-14,24-28.09,48a32.77,32.77,0,0,1-5.52,1.56c-2.92.32-5.89.22-8.83.29l.46-.9.79-1.16c9.51-16.7,19-33.43,28.56-50.07,11-19.08,22.17-38.08,33.27-57.12,3.33,4.14,6.06,4.54,10.19,1.64A14.4,14.4,0,0,1,322.8,222.47Z" fill="#80ddf9"/>
    <path d="M322.8,222.47a14.4,14.4,0,0,0-3,1.27c-4.13,2.9-6.86,2.5-10.19-1.64q18.52-32.35,37.06-64.68c7.53-13.07,15.21-26.06,22.81-39.08,4.4,5.37,8.89,1,13.35.14-6.3,11.12-12.55,22.27-18.92,33.36q-14,24.43-28.19,48.8C331.46,208,327.11,215.2,322.8,222.47Z" fill="#8be1fa"/>
    <path d="M246.52,331.35c2.94-.07,5.91,0,8.83-.29a32.77,32.77,0,0,0,5.52-1.56c-.68,1.5-1.25,3.06-2.07,4.48q-10.17,17.7-20.43,35.34-13.74,23.61-27.56,47.16a18.43,18.43,0,0,0-3.26.89c-4.06,2-6.82.55-8.82-3.14,3.06-5,6.18-10,9.16-15.12.8-1.36,1-3,1.81-4.41Q228.08,363,246.52,331.35Z" fill="#7cdaf9"/>
    <path d="M198.73,414.23c2,3.69,4.76,5.12,8.82,3.14a18.43,18.43,0,0,1,3.26-.89c-10.05,17.57-20.14,35.12-30.13,52.73-4.74,8.35-9.31,16.81-14,25.21l-4.85,6.09-8.31,4.8c-.08-1.64-.15-2.85-.22-4.23l-5.12.26Z" fill="#73d6f9"/>
    <path d="M148.23,501.34l5.12-.26c.07,1.38.14,2.59.22,4.23l8.31-4.8c-4.37,8-8.62,16.1-13.15,24Q132,553.79,115,582.92a14.93,14.93,0,0,1-1.22,1.56c-1.35.52-3,.7-4,1.63-3.39,3.37-5.59,2.88-7-1.62a16.4,16.4,0,0,0-1.09-2.23c6.76-11.94,13.47-23.92,20.32-35.82C130.7,531.37,139.49,516.37,148.23,501.34Z" fill="#6cd3f9"/>
    <path d="M370.76,116.27l-.79,1.19Z" fill="#8be1fa"/>
    <path d="M247.77,329.29l-.79,1.16Z" fill="#7cdaf9"/>
    <path d="M166.73,494.42c4.64-8.4,9.21-16.86,14-25.21,10-17.61,20.08-35.16,30.13-52.73q13.78-23.58,27.56-47.16Q248.65,351.7,258.8,334c.82-1.42,1.39-3,2.07-4.48q14-24,28.09-48c2.52-.81,5.05-1.58,7.56-2.42,2.66-.9,4.19.39,3.79,2.8-.75,4.45.92,6.33,5.2,7.15,2.69.51,5.17,2.13,7.72,3.24-.11,6.48-.09,6.46,6.72,5.44a40.73,40.73,0,0,1,5.49,0c-.92,3.19-1.72,5.93-2.56,8.85.94.35,1.85.93,2.07.73,4-3.53,8.26-.09,12.37-.44,3-.26,4,2.27,3.34,4.84a69.36,69.36,0,0,1-3.12,7.92c.39.11,1.4.78,2,.51,4.78-2.21,11.64,1.18,10.84,6.1-1.05,6.48,1.81,5.41,5.63,4.12a10.46,10.46,0,0,1,1.85-.3c1.45,3.11,2.71,6.11,4.21,9,1.64,3.14,4.9,3.05,6.88.2.91-1.32,2.56-2.12,3.88-3.16,1,1.84,3.12,4.06,2.67,5.44-2,6.12,2,7.74,6.19,8.27,5.31.67,3.24,5.39,5.22,7.77-2.93,5.35-5.89,10.7-8.79,16.07-.86,1.59-1.59,3.24-2.38,4.87-4.62,7.66-9.35,15.24-13.82,23Q335.6,447,309.46,492.61a9.87,9.87,0,0,0-.66,1.87c-6.33,10.68-12.74,21.31-19,32-8.14,14-16.14,28.18-24.25,42.25a9.17,9.17,0,0,1-1.72,1.75,57.4,57.4,0,0,1-3.37-7c-.62-1.87-.23-4-.74-6a39.14,39.14,0,0,0-2.41-5.55c-1.49.77-2.9,1.89-4.48,2.23-3.25.7-6.59,1-10.54,1.52,1.24-2.4,2.15-4,2.88-5.63,1.91-4.28.73-6.66-3.77-7.07a18.71,18.71,0,0,0-7.19.64c-3.41,1.09-4.29.24-3.68-3.15.26-1.47-.1-3-.24-5.93-1.83,2.15-2.68,3.16-3.38,4-6.39-2.09-5.11-6.59-2.72-11.43l-1.43-.31L216,532.27c-3.5-3.66-7.11-7.41-10.69-11.2-.43-.46-1-1.14-.95-1.62,1-6.19-2.72-4.83-6.41-4.33-2.24.31-4.63-.43-6.79-.68L197,504.13l-.64-1.57-10.47,1c-.84-2.82-2.51-4.32-6.47-4.9-2.82-.41-5-5-7.86-8.17ZM331,314.57c1.89.73,3,1.6,3.64,1.31a7.93,7.93,0,0,0,2.87-2.8c.17-.26-1.31-2.06-1.44-2A48.41,48.41,0,0,0,331,314.57Z" fill="#49c9f9"/>
    <path d="M219.72,754a27,27,0,0,1,.45,2.67A3.28,3.28,0,0,1,219,757c-.39-.82-.66-1.69-1-2.55Z" fill="#39bdf9"/>
    <path d="M241.05,764.61c-.81.76-1.23,1.44-1.61,1.41s-.94-.61-1.21-1.07c-.08-.15.46-.94.76-1A6.67,6.67,0,0,1,241.05,764.61Z" fill="#39bdf9"/>
    <path d="M240.19,545.52l.12,2.22-.82.11c-.17-.74-.33-1.47-.5-2.21Z" fill="#49c9f9"/>
    <path d="M88.38,667.44l.27-.36a7,7,0,0,1,.57.52s-.16.22-.25.34Z" fill="#39bdf9"/>
    <path d="M531.89,573.45l27.49,46.8c-2.3.13-3.58.26-4.87.26q-83.42,0-166.85,0c-25-.05-45-14.9-51.93-38.84-4.32-14.88-2.5-29.26,5.84-42.57,1.49,2.89,1.58,7.08,5.19,7l9.07-8.64c-1.94,3.86-3.88,7.7-5.8,11.56-13.37,27,6.63,59.39,36.74,59.43q72.66.09,145.33,0c1.71,0,3.42-.24,5.78-.41-1-1.92-1.53-3.09-2.16-4.21q-9.44-16.7-18.9-33.36c1.67.61,4.31.77,4.86,1.93C524.69,578.76,528.26,575.6,531.89,573.45Z" fill="#67d2fa"/>
    <path d="M355.83,537.48l-9.07,8.64c-3.61,0-3.7-4.16-5.19-7q18-31.38,36-62.75Q400.17,437,422.9,397.66c1.14-2,2.32-3.93,3.45-5.85.64.27,1.07.31,1.2.52q31.43,54.45,62.81,108.9c-2.66,2.75-.63,3,1.66,3.18l1,1.72c-4.25,1.12-8.62,3.78-12.42-1-.33-.42-1.2-.41-1.81-.61q-20.52-35.06-41-70.13c-3.47-5.92-6.95-11.82-10.71-18.21-1.4,1.83-2.21,2.68-2.79,3.67q-20.75,35.82-41.46,71.66C373.88,506.85,364.82,522.15,355.83,537.48Zm-7.56,1-.59-.5c-.09.12-.27.32-.24.35a4,4,0,0,0,.57.51Z" fill="#73d6f9"/>
    <path d="M478.8,504.49c.61.2,1.48.19,1.81.61,3.8,4.81,8.17,2.15,12.42,1q17.82,30.57,35.65,61.16c1.16,2,2.14,4.11,3.21,6.16-3.63,2.15-7.2,5.31-10.21-1-.55-1.16-3.19-1.32-4.86-1.93-9-15.33-18-30.62-27-46C486,517.91,482.48,511.17,478.8,504.49Z" fill="#6cd3f9"/>
    <path d="M492,504.41c-2.29-.15-4.32-.43-1.66-3.18C490.92,502.29,491.47,503.35,492,504.41Z" fill="#6cd3f9"/>
    <path d="M331,314.57a48.41,48.41,0,0,1,5.07-3.48c.13-.07,1.61,1.73,1.44,2a7.93,7.93,0,0,1-2.87,2.8C334,316.17,332.86,315.3,331,314.57Z" fill="#54d0fa"/>
    <path d="M478.8,504.49c3.68,6.68,7.24,13.42,11.07,20,8.92,15.37,18,30.66,27,46q9.45,16.68,18.9,33.36c.63,1.12,1.18,2.29,2.16,4.21-2.36.17-4.07.41-5.78.41q-72.68,0-145.33,0C356.66,608.43,336.66,576,350,549c1.92-3.86,3.86-7.7,5.8-11.56,9-15.33,18.05-30.63,27-46q20.79-35.79,41.46-71.66c.58-1,1.39-1.84,2.79-3.67,3.76,6.39,7.24,12.29,10.71,18.21Q458.29,469.43,478.8,504.49Z" fill="#48c8f9"/>
    <path d="M348.27,538.52l-.26.36a4,4,0,0,1-.57-.51s.15-.23.24-.35Z" fill="#67d2fa"/>
  </g>
</svg>
