<svg xmlns="http://www.w3.org/2000/svg" xmlns:xlink="http://www.w3.org/1999/xlink" width="77" height="75" viewBox="0 0 77 75">
  <defs>
    <linearGradient id="linear-gradient" x1="0.5" x2="0.5" y2="1" gradientUnits="objectBoundingBox">
      <stop offset="0" stop-color="#ffff05"/>
      <stop offset="1" stop-color="#9007f0"/>
    </linearGradient>
    <clipPath id="clip-codepen">
      <rect width="77" height="75"/>
    </clipPath>
  </defs>
  <g id="codepen" clip-path="url(#clip-codepen)">
    <path id="codepen-2" data-name="codepen" d="M75.059,25.87c-.006-.046-.019-.093-.027-.139-.017-.091-.032-.181-.057-.27-.015-.053-.034-.105-.051-.156-.025-.078-.051-.158-.082-.234-.021-.053-.046-.108-.072-.158q-.05-.109-.11-.213c-.03-.051-.061-.1-.091-.15q-.065-.1-.137-.2-.053-.071-.11-.139-.077-.09-.16-.173c-.042-.044-.084-.086-.129-.127s-.119-.1-.182-.154-.095-.076-.146-.11c-.019-.013-.036-.027-.053-.04L39.334.757a3.229,3.229,0,0,0-3.58,0L1.438,23.608c-.017.013-.034.027-.053.04-.051.036-.1.074-.146.11s-.125.1-.184.154-.087.082-.129.127-.109.113-.16.173S.69,24.3.654,24.35q-.072.1-.135.2-.049.073-.093.15-.059.1-.11.213c-.025.051-.051.105-.072.158-.032.076-.057.156-.082.234-.017.051-.036.1-.051.156-.023.089-.04.179-.057.27-.008.046-.019.093-.025.139A3.1,3.1,0,0,0,0,26.29V49.142a3.123,3.123,0,0,0,.03.422c.006.046.017.093.025.137.017.091.032.181.057.27.015.053.034.105.051.156.025.078.051.158.082.236.021.053.046.105.072.156.034.072.07.143.11.215.03.048.061.1.093.148q.064.1.135.2c.036.048.074.095.112.139s.1.118.16.173.084.086.129.127.12.105.184.154q.071.057.146.11c.019.013.036.027.053.04L35.754,74.673a3.228,3.228,0,0,0,3.58,0L73.651,51.82c.017-.011.034-.027.053-.04.051-.036.1-.072.146-.11s.123-.1.182-.154.087-.082.129-.127.109-.113.16-.173.075-.091.11-.139q.073-.1.137-.2c.032-.049.061-.1.091-.148.04-.072.076-.141.11-.215.025-.051.051-.1.072-.156.032-.078.057-.158.082-.236.017-.051.036-.1.051-.156.023-.089.04-.179.057-.27.008-.044.019-.093.027-.137a3.509,3.509,0,0,0,.03-.422V26.29a3.285,3.285,0,0,0-.03-.42ZM40.77,9.461,66.051,26.294,54.759,33.84,40.772,24.493V9.461Zm-6.453,0V24.493L20.329,33.84,9.035,26.294,34.316,9.461ZM6.453,32.322l8.072,5.394L6.453,43.11V32.322ZM34.316,65.971,9.037,49.138l11.294-7.545,13.987,9.345V65.971Zm3.228-20.63L26.132,37.716l11.412-7.625,11.412,7.625L37.544,45.341Zm3.226,20.63V50.939l13.987-9.345,11.292,7.545L40.768,65.971ZM68.633,43.11,60.56,37.716l8.072-5.394Z" transform="translate(1 -0.215)" fill="url(#linear-gradient)"/>
  </g>
</svg>
