<svg xmlns="http://www.w3.org/2000/svg" xmlns:xlink="http://www.w3.org/1999/xlink" width="76" height="75" viewBox="0 0 76 75"><defs><clipPath id="b"><rect width="76" height="75"/></clipPath></defs><g id="a" clip-path="url(#b)"><path d="M13.694,0A13.665,13.665,0,0,0,0,13.694V61.3A13.665,13.665,0,0,0,13.694,75H39.5V45.679H31.746V35.123H39.5V26.1c0-7.085,4.581-13.592,15.133-13.592a63.94,63.94,0,0,1,7.431.41l-.248,9.858s-3.223-.031-6.737-.031c-3.806,0-4.415,1.754-4.415,4.665v7.708H62.119l-.5,10.556H50.663V75H61.306A13.665,13.665,0,0,0,75,61.306V13.694A13.665,13.665,0,0,0,61.306,0Z" transform="translate(0.5)"/></g></svg>