<svg xmlns="http://www.w3.org/2000/svg" xmlns:xlink="http://www.w3.org/1999/xlink" width="77" height="75" viewBox="0 0 77 75"><defs><clipPath id="b"><rect width="77" height="75"/></clipPath></defs><g id="a" clip-path="url(#b)"><path d="M46.438,8a38.407,38.407,0,0,0-12.13,74.862c1.92.352,2.625-.832,2.625-1.856V74.6c-10.69,2.3-12.8-5.153-12.8-5.153a10.274,10.274,0,0,0-4.257-5.633c-3.489-2.368.256-2.336.256-2.336a8.162,8.162,0,0,1,5.889,3.969,8.194,8.194,0,0,0,11.17,3.2A8.29,8.29,0,0,1,39.62,63.5c-8.514-.96-17.507-4.257-17.507-18.98a14.819,14.819,0,0,1,3.969-10.306A13.7,13.7,0,0,1,26.274,24s3.2-1.056,10.562,3.937a35.783,35.783,0,0,1,19.2,0C63.4,22.883,66.6,24,66.6,24a13.7,13.7,0,0,1,.384,10.146,14.819,14.819,0,0,1,3.937,10.306c0,14.755-8.962,18.019-17.507,18.948a9.218,9.218,0,0,1,2.625,7.073v10.53c0,1.28.672,2.208,2.625,1.856A38.407,38.407,0,0,0,46.438,8Z" transform="translate(-7.986 -8)" fill-rule="evenodd"/></g></svg>