<svg xmlns="http://www.w3.org/2000/svg" xmlns:xlink="http://www.w3.org/1999/xlink" width="77" height="75" viewBox="0 0 77 75">
  <defs>
    <linearGradient id="linear-gradient" x1="0.5" x2="0.5" y2="1" gradientUnits="objectBoundingBox">
      <stop offset="0" stop-color="#ffff05"/>
      <stop offset="1" stop-color="#9007f0"/>
    </linearGradient>
    <clipPath id="clip-linkedin">
      <rect width="77" height="75"/>
    </clipPath>
  </defs>
  <g id="linkedin" clip-path="url(#clip-linkedin)">
    <path id="linkedin-rect" d="M14.712.009a14.746,14.746,0,0,0-14.7,14.7V60.315A14.744,14.744,0,0,0,14.714,75.009H60.349a14.742,14.742,0,0,0,14.7-14.694V14.707a14.745,14.745,0,0,0-14.7-14.7Zm3.7,12.376c3.877,0,6.267,2.545,6.34,5.888,0,3.27-2.463,5.886-6.415,5.886h-.073c-3.8,0-6.263-2.616-6.263-5.886,0-3.343,2.534-5.888,6.411-5.888Zm33.416,15.63c7.458,0,13.047,4.871,13.047,15.34V62.9H53.542V44.666c0-4.581-1.639-7.708-5.741-7.708A6.206,6.206,0,0,0,41.984,41.1a7.73,7.73,0,0,0-.373,2.764V62.9H30.276s.148-30.885,0-34.082H41.611v4.827a11.252,11.252,0,0,1,10.215-5.625Zm-39.157.8H24V62.9H12.67V28.818Z" transform="translate(0.971 -0.009)" fill="url(#linear-gradient)"/>
  </g>
</svg>
