<svg id="Layer_1" data-name="Layer 1" xmlns="http://www.w3.org/2000/svg" viewBox="0 0 597.73 337.64">
  <path id="pointer" d="M299,251c20.28-20.35,40.13-40.32,60-60.24Q450.72,99,542.48,7.27c9.75-9.75,23-9.56,32.7.29q8.05,8.21,15.91,16.59c9,9.61,8.87,21.32-.44,30.64q-82.35,82.4-164.77,164.69Q372,273.39,318,327.21a40.78,40.78,0,0,1-13.76,9.2c-8,3-15.37.28-21.36-5.7q-35.58-35.47-71.09-71Q125.34,173.28,38.92,86.83C28.2,76.11,17.43,65.43,6.79,54.63c-9.13-9.27-9-21.7.14-31Q15.17,15.22,23.54,7c9.45-9.31,21.93-9.32,31.4.14Q151.81,104,248.63,200.85q23.49,23.51,47,47C296.53,248.82,297.53,249.66,299,251Z" fill="none"/>
</svg>
